<svg height="129" viewBox="0 0 130 129" width="130" xmlns="http://www.w3.org/2000/svg"><g fill="none" fill-rule="evenodd" transform=""><path d="m.00785235 71.3724991c0 31.6843909 27.33053695 57.3654469 61.04459735 57.3654469s61.0445973-25.681056 61.0445973-57.3654469c0-31.6822022-27.3305369-57.3663219-61.0445973-57.3663219s-61.04459735 25.6841197-61.04459735 57.3663219" fill="#e2e2e2" opacity=".5"/><path d="m99.7675839 46.1449219c.3402681-.1960988.6303691.3134078.3071141.5257021-2.4761074 1.6059962-4.3436577 3.8436228-5.5092953 6.5124041 1.1542953.2967744 2.2863423.643449 3.4013758 1.0408991 2.6152685-4.9628738 5.7710405-9.6679304 9.0441615-14.2224111-7.4771816 1.7009815-14.9434568 4.8398744-18.3561749 12.1410506 1.6673154.1623943 3.3176175.4364073 4.9461074.8110959 1.260302-2.886766 3.3957047-5.2421395 6.1667114-6.8087407m-46.2856711 27.6065876c2.1912416-6.4638171 6.523557-12.2150254 12.1833557-16.098043 5.7876174-3.9723126 12.7578859-5.7739697 19.7220469-5.6842371-3.4515436-1.2759549-7.2708389-1.1078703-10.9400671-.9625471-4.6503355.1904084-9.423255.9402234-13.2486577 3.7989753-5.9324497 4.4367339-7.7895302 11.6875723-7.7502685 18.7445005.0165772.0612809.0279195.1313161.0335907.2013514m-5.4979531 2.2980321c.1391611 1.0636605.9143624 2.1316983 2.0686577 2.1360755 1.3606376.0131316 2.4643289-1.2781435 2.341745-2.5956819-.010906-.0962985.0335906-.1619566.0946644-.2057286-.0222483-.0437721-.0444966-.0831669-.0501677-.1400706-.0222484-.1400705-.0335906-.280141-.0554027-.4202115l-.0785235-.0393949c-.2839933-.1882197-.2896644-.6697122-.0274832-.8491775-.0056712-.0700353-.0170135-.1400706-.0279195-.214483-.1116779-.0919213-.2229195-.2057286-.3625168-.2713867-.2508389-.1313161-.5466107-.1925969-.8253691-.2188602-.4794295-.0525264-.9867785.0043772-1.4387248.170711-.7080202.2626322-1.2319463.7703879-1.4884564 1.4050825.0501678.043772.1003356.0962984.1561745.1444477.3119127.2757638.0165772.7047298-.3289262.6959754 0 .1269389.0052349.2626322.0222483.4027028m6.5292282 30.8067614c1.8566443 1.781522 1.8679866 4.911223.3568457 7.126088 11.4644295 1.527644 23.9265436 1.400705 34.6266778-3.418596 9.5126846-4.285283 16.9955366-12.4181278 20.7428526-22.1661611 1.845302-4.7930383 2.866107-10.0500602 2.587349-15.1976521-.373859-6.9081033-4.087148-11.8705394-9.992551-15.1827697-2.737416-1.5385871-5.7095298-2.708176-8.7876506-3.4798771l-.010906.0275764c-.2006712.5988015-1.1377182.3471123-.9479531-.2573796-7.6835234-1.7176148-15.9585906-1.0124473-22.9842617 2.4674299-10.7058054 5.303858-17.5194631 16.8671177-16.6107718 28.8212617 1.2153691-1.4269685 2.5537584-2.7445069 4.0147315-3.9132203.3289262-.2582551.7695302.1575793.4685235.4683608-2.0464094 2.1579615-3.847651 4.4034672-5.3810402 6.7759117l.0222483.0087544c.3345973.1094301.1954362.5646593-.1391611.5165101-.0728523-.0087544-.1339262-.0087544-.2063423-.021886-2.520604 4.0226504-4.2934899 8.4042316-5.2414429 13.2935689 2.8883557-.091922 5.8827181 1.194976 7.460604 3.580552.128255.196975.1116778.389571.0222483.551528m-3.5684564 8.496153c3.5907047-1.356933 5.9996309-7.064807 1.4330537-9.030172-.1840939-.07879-.1840939-.280141-.1003355-.424589-1.6450671-1.256257-3.5741276-2.048531-5.6318792-1.864689-.1670806.131317-.4070135.153203-.6133557.087545-.3847651.070035-.7752014.170711-1.1656376.315158-3.1945973 1.186223-4.5443289 4.933109-3.3507718 8.040924 1.4273825 3.716246 6.1392282 4.13208 9.4289261 2.875823m-6.0275503-20.1745331c1.2323826-1.2299943 2.352651-2.232374 4.0535571-2.6525856.5295973-1.0855466 1.1150335-2.1316984 1.7563087-3.1472097-1.7454027.1006757-3.3398658.7485019-4.7838255 1.930347-.4855369.3939483-1.1713087-.2495006-.7027853-.7047299 1.5778859-1.5407758 3.8249665-2.2498828 5.9830537-1.9828734.4126846-.6215629.8362752-1.2299943 1.2934564-1.8165396-.2285906-.1094301-.4183557-.3151587-.4515101-.621563-.0222483-.214483-.0388255-.4202115-.0558389-.6259401-4.8845973.1400705-9.6518456 2.3943305-12.194698 6.7452713-.7974496 1.3656876-2.9664429 6.1280855 1.7283893 5.3620748 1.3942282-.2319918 2.4368456-1.5495302 3.3738926-2.4862518m-2.8216107-14.6417473c3.1505369.9629849 6.5850671.4814925 9.7805369.0525265.0554027-.0087544.0998993 0 .1448322.0043772.0833221-.9060812.2115772-1.803408.379094-2.6963577-.6412752.8448004-1.7118121 1.3700649-2.8216108 1.2081083-1.8457382-.2626322-2.9049329-2.2717688-2.6370805-4.0226504-.1618457-.1050529-.3293624-.2188602-.4907718-.3326675-.0615101.2319918-.2399329.4114572-.5522819.3895712-1.6782215-.1225618-3.3341946-.0131317-4.929094.5690365-1.7728859.6434489-3.1112751 2.5168922-1.1878859 3.7819042.7136913.4639836 1.5002349.8010283 2.3142618 1.0461517m3.289698-6.6227096c-1.2768792-1.1293186-2.3753356-2.5024475-3.150537-3.9569923-1.7506375 2.3549357-4.237651 4.1408349-7.0365771 5.108197.8528523.3020271 1.6167114.7485019 2.2025839 1.4225913 1.4273825-1.7465044 5.9272147-2.5650415 7.9845302-2.573796m-5.436443-61.7684759c-.440604-3.25663974-.0335906-6.41172836 1.0927852-9.43331225-3.5239597 2.7191191-5.2021812 6.65816494-5.5646979 11.15617975 1.455302-.6600824 2.9494295-1.2308698 4.4719127-1.7228675m-17.5308054 62.5738815c2.146745 2.2148652 4.7061745 4.0926857 7.6111074 5.1738551 1.3549665.5033784 3.730302 1.352556 5.124094.945476 1.6729866-.4902468 2.1022483-1.8165396 1.0487248-3.1778501-1.1822148-1.5276441-2.7601007-1.6458287-4.5892617-1.825294-.9200336-.0919213-.9313759-1.3613104 0-1.4401001 5.4922818-.4596064 10.4270469-4.4997657 11.6035906-9.9826514 1.1765436-5.46669-1.767651-11.3299547-6.5348994-14.0153693-.5409396-.3020271-.06151-1.1188134.4851007-.828167 5.4198658 2.9147801 8.7095638 9.0415525 7.4161074 15.218225-.3180201 1.5048827-.8921141 2.8981467-1.6616443 4.162721.066745.0389571.1334899.1006756.1893289.1842802 1.2546308 1.841052 2.6152684 3.4006498 4.1879194 4.8976536.8192618-1.5145126 2.7875839-2.1951678 4.4383222-1.7858993.1505033.0306405.2953355.0831669.440604.1313162-.2063423-7.109017 2.8377517-14.6566298 8.6816443-18.7519418 3.9645637-2.7751473 8.8600671-3.5359054 13.5884899-3.70399 4.1595638-.1510135 9.217349-.5594067 12.7077181 2.1093746.066745 0 .1339262.0056904.2006712.0056904.507349-1.2365602 1.1377181-2.3610639 1.8623154-3.3905822-.7747651-.363308-.1003356-1.4939397.6748658-1.1525178.8476174.380379.1395973-4.2463256.0222483-4.817113-.2451678-1.1805319-.5466107-2.3444304-.9034564-3.4912579-.8140268-2.6241337-1.9181543-5.1414637-3.2504362-7.5419224-2.4481879-4.3863961-5.6986242-8.3083708-9.5576175-11.514235-8.3082214-6.9151068-19.1811073-9.8522107-29.8424161-8.1853714-10.4549664 1.6340102-20.2686577 7.3576421-26.229463 16.2197293-5.9996309 8.929496-8.090537 20.3933932-5.748792 30.8947432 1.2825503 5.7796601 3.8978188 11.3802926 8.0351342 15.6611981m11.8099329-60.2522125c-.5409396-5.68423708 3.0776846-11.21789832 7.8676175-13.94796043.5575167-.3134078 1.1207047.30771744.8476174.85049073-1.7118121 3.34549698-2.3421812 6.80874076-2.1746644 10.5236738 11.7597651-3.51358166 25.0472483-1.8572477 35.5580537 6.4174187 5.5533557 4.3697627 10.0086913 10.1826895 12.7186241 16.7231077 1.3715437 3.3122302 2.5201678 7.0157825 2.7435235 10.6247872v.0726616c4.3715772-4.0117075 10.5605372-6.0199686 16.4266782-7.1838672.440604-.0897327.986778.4083931.657852.8618715-3.596376 4.8954649-6.813658 10.0146049-10.1369463 15.0947878.3677517.1396328.7302685.2853937 1.0927853.4364073 5.007181 2.0923035 10.059295 5.3261817 12.56245 10.3393934 1.143389 2.2993453 1.712248 4.8223656 1.895906 7.3996633l.039261.6784666c.044497.9848709.033591 1.9828734-.016577 2.9721215 2.854765-.9892481 5.447785-2.3155409 7.839698-4.2152474.217249-.1715864.529598.1269389.312349.3151587-2.386678 2.0923035-5.158121 3.7074918-8.19698 4.613573-.128255 1.7071095-.373422 3.3967102-.685771 5.0206529-.044497.236369-.106007.4596064-.150504.687221.440604-.1050529.892114-.2101058 1.349295-.302027l.156175.7616335c-.568859.1750881-1.142953.3282902-1.717483.4771152-2.453423 10.3170697-9.010571 19.6886635-17.9321479 25.3877825-12.2671141 7.835196-27.2275839 7.997152-41.1118456 5.747269-.1060067.105053-.2115772.210106-.3232551.310782-3.2286241 2.762015-9.5964429 3.20849-12.4625503-.284519-2.5925839-3.147209-1.9901342-8.448003 1.377651-10.78543.886443-.621563 1.9068121-1.015511 2.9721141-1.208108.4458389-2.9589903 1.2821141-5.8960941 2.480906-8.6887502-2.72651 1.4576089-4.3436577 5.1913639-7.8732886 4.9112228-2.3251677-.1838426-3.233859-2.2936549-2.8377516-4.3903356 1.1874496-6.268156 8.4308053-10.4177454 14.4413422-10.0150426-.0610738-1.094301-.0501677-2.1842248.0170135-3.2653942-4.2655705.9323445-10.0981208 1.6370743-13.65-1.5407758-.1727517.8316688-.6412752 1.5757935-1.4666443 2.0003822-2.2527517 1.1599591-5.9494631-.1269389-8.0682886-1.0330201-2.8940269-1.2299943-5.4477852-3.1734729-7.5945302-5.4539961-9.0441611-9.6250338-11.0569799-24.5241606-7.4161074-36.894139 3.2395302-11.0279277 10.9793289-19.3415512 20.4584228-24.0190313" fill="#131514"/><path d="m59.2808725 15.2611216c.2730872.0840423.4680872-.3523649.2006711-.4701117-3.4960402-1.5328968-8.1241275-1.7902764-11.5813423-.0223237-.3961073.2013513-.1116778.8001528.2901007.6937868 3.9418792-1.0124473 7.1037584-1.3538692 11.0905705-.2013514m-3.9091611 1.9806848c.440604.0223237.4126846-.6154349 0-.6657727-2.7487584-.3580553-5.7932886-.3860694-8.486208.3746886-.4349329.1229995-.3625168.8728145.1112416.8167863 2.8325167-.3580553 5.5092953-.6994772 8.3749664-.5257022m-16.8057718 45.0777595c.117349-.4420976-.5688591-.7664484-.7638591-.3186604-.6469463 1.4768686-1.0426174 3.0938077-1.5220469 4.6323949-.1282551.3970124.4680872.5427733.6076845.1676469.574094-1.4654879 1.2712081-2.9541749 1.6782215-4.4813814m1.1708725 5.7739698c.9034564-1.3149121 1.5892282-3.6536522.5130201-5.0578592-.2172483-.2853937-.8362752-.2573796-.7861074.2127321.1727517 1.5105731.4292618 2.6687813-.3568456 4.0839313-.8140269 1.4492922-2.1633222 2.3444304-3.8083893 2.5291484-.3345973.0389572-.3402684.4981259 0 .5313926 1.7955705.1790276 3.4402014-.8504907 4.4383222-2.2993452m6.6243288-56.1503347c10.6613088-1.6668393 21.5341947 1.2702646 29.8424161 8.1853714 3.8589933 3.2058642 7.1094296 7.1278389 9.5576175 11.514235 1.3322819 2.4004587 2.4364094 4.9177887 3.2504362 7.5419224.3568457 1.1468275.6582886 2.310726.9034564 3.4912579.117349.5707874.8253691 5.197492-.0222483 4.817113-.7752014-.3414219-1.4496309.7892098-.6748658 1.1525178-.7245973 1.0295183-1.3549664 2.154022-1.8623154 3.3905822-.066745 0-.1339262-.0056904-.2006712-.0056904-3.4903691-2.6687813-8.5481543-2.2603881-12.7077181-2.1093746-4.7284228.1680846-9.6239262.9288427-13.5884899 3.70399-5.8438926 4.095312-8.8879866 11.6429248-8.6816443 18.7519418-.1452685-.0481493-.2901007-.1006757-.440604-.1313162-1.6507383-.4092685-3.6190604.2713867-4.4383222 1.7858993-1.572651-1.4970038-2.9332886-3.0566016-4.1879194-4.8976536-.055839-.0836046-.1225839-.1453231-.1893289-.1842802.7695302-1.2645743 1.3436242-2.6578383 1.6616443-4.162721 1.2934564-6.1766725-1.9962416-12.3034449-7.4161074-15.218225-.5466107-.2906464-1.0260403.5261399-.4851007.828167 4.7672484 2.6854146 7.711443 8.5486793 6.5348994 14.0153693-1.1765437 5.4828857-6.1113088 9.523045-11.6035906 9.9826514-.9313759.0787897-.9200336 1.3481788 0 1.4401001 1.829161.1794653 3.4070469.2976499 4.5892617 1.825294 1.0535235 1.3613105.6242618 2.6876033-1.0487248 3.1778501-1.393792.40708-3.7691275-.4420976-5.124094-.945476-2.9049329-1.0811694-5.4643624-2.9589899-7.6111074-5.1738551-4.1373154-4.2809055-6.7525839-9.881538-8.0351342-15.6611981-2.341745-10.50135-.2508389-21.9652472 5.748792-30.8947432 5.9608053-8.8620872 15.7744966-14.5857191 26.229463-16.2197293" fill="#fff"/><path d="m35.2984899 69.8614883c-.3345973.0393949-.3402684.4981259 0 .5313926 1.7955705.1790276 3.4402014-.8504907 4.4383222-2.2993452.9034564-1.3149121 1.5892282-3.6536522.5130201-5.0578592-.2172483-.2853937-.8362752-.2573796-.7861074.2127321.1727517 1.5105731.4292618 2.6687813-.3568456 4.084369-.8140269 1.4488545-2.1633222 2.3439927-3.8083893 2.5287107" fill="#131514"/><path d="m36.2800336 66.6333004c-.1282551.3970124.4680872.5427733.6076845.1676469.574094-1.4659256 1.2712081-2.9537372 1.6782215-4.4813814.117349-.4420976-.5688591-.7664484-.7638591-.3190981-.6469463 1.4773063-1.0426174 3.0942454-1.5220469 4.6328326" fill="#131514"/><path d="m41.0416107 2.71167785c-3.5239597 2.7191191-5.2021812 6.65816494-5.5646979 11.15617975 1.455302-.6600824 2.9498657-1.2308698 4.4719127-1.7228675-.440604-3.25620202-.0335906-6.41172836 1.0927852-9.43331225" fill="#ffedd0"/><path d="m40.9691946 75.7081197c-1.7728859.6434489-3.1112751 2.5168922-1.1878859 3.7819042.7136913.4639836 1.5002349.8010283 2.3142618 1.0461517 3.1505369.9629849 6.5850671.4814925 9.7805369.0525265.0554027-.0087544.0998993 0 .1448322.0043772.0833221-.9060812.2115772-1.803408.379094-2.6963577-.6412752.8448004-1.7118121 1.3700649-2.8216108 1.2081083-1.8457382-.2626322-2.9049329-2.2717688-2.6370805-4.0226504-.1618457-.1050529-.3293624-.2188602-.4907718-.3326675-.0615101.2319918-.2399329.4114572-.5522819.3895712-1.6782215-.1225618-3.3341946-.0131317-4.929094.5690365" fill="#bbb"/><path d="m39.8148993 92.3020999c-.7974496 1.3656876-2.9664429 6.1280855 1.7288255 5.3620748 1.393792-.2319918 2.4364094-1.5495302 3.3734564-2.4862518 1.2319463-1.2299943 2.3530873-2.232374 4.0535571-2.6525856.5295973-1.0855466 1.1150335-2.1316984 1.7563087-3.1472097-1.7449665.1006757-3.3398658.7485019-4.7842618 1.930347-.4851006.3939483-1.1708724-.2495006-.702349-.7047299 1.5778859-1.5407758 3.8249665-2.2498828 5.9830537-1.9828734.4126846-.6215629.8362752-1.2299943 1.2934564-1.8165396-.2285906-.1094301-.4179195-.3151587-.4515101-.621563-.0222483-.214483-.0392617-.4202115-.0558389-.6259401-4.8845973.1400705-9.6518456 2.3943305-12.194698 6.7452713" fill="#ec8185"/><path d="m52.366443 110.314294c.0170134-.258255-.3956712-.315159-.445839-.065658-.4741946 2.398708-3.0667785 3.707492-5.2807047 2.845183-.4628523-.179466-.7752013.590922-.3345973.801028 2.6152685 1.212485 5.8491275-.717861 6.061141-3.580553m-6.3342282-6.193743c.2063422.065658.4462751.043772.6133557-.087545 2.0577516-.183842 3.9868121.608432 5.6318792 1.864689-.0837584.144448-.0837584.345799.1003355.424589 4.5665772 1.965365 2.157651 7.673239-1.4330537 9.030172-3.2896979 1.256257-8.0015436.840423-9.4289261-2.875823-1.1935571-3.107815.1561745-6.854701 3.3507718-8.040924.3904362-.144447.7808725-.245123 1.1656376-.315158" fill="#ae9988"/><path d="m46.6398993 113.093819c-.4628523-.179466-.7747651.590922-.3345973.801028 2.6152685 1.212485 5.8495638-.717861 6.061141-3.580553.0165771-.258255-.3956712-.315159-.445839-.061281-.4741946 2.394331-3.0667785 3.703115-5.2807047 2.840806" fill="#131514"/><path d="m46.8855034 16.9507223c-.4349329.1229995-.3625168.8728145.1112416.8167863 2.8325167-.3580553 5.5092953-.6990395 8.3754027-.5257022.4401677.0223237.4122483-.6154349 0-.6657727-2.7491947-.3580553-5.7937249-.3860694-8.4866443.3746886" fill="#131514"/><path d="m100.191611 95.6594153c.239933-.2276146-.067181-.6171857-.3511748-.4552292-1.572651.9192128-4.0928188 2.7313753-5.8827181 1.3175384-1.895906-1.5057582-.312349-4.3159231.6020134-5.9048481.3345974-.5734138-.5295973-1.0767922-.8864429-.5208873-1.260302 1.9916278-2.6876846 5.3752064-.3681879 7.1873689 2.1244966 1.6545831 5.2414429-.0525265 6.8865103-1.6239427m-11.3693291-39.6115072c.2674161.0446475.3847651-.3414219.1116778-.4140835-2.8552013-.749815-5.938557-.5370829-8.6484899.643449-.3847651.1619565-.1003356.8224766.2844295.6714631 2.7265101-1.0746036 5.3526846-1.4046448 8.2523826-.9008286m-3.3346309 2.5006966c.3402685.0280141.3289262-.4924354 0-.5313926-2.6654362-.2797033-5.4307718-.0840423-7.9343624.9340954-.4519463.1790276-.2787584.9122093.2063423.749815 2.5537584-.8504907 5.0237584-1.3481788 7.7280201-1.1525178m-.2953356 23.14753c.2451678-.1532022.0837584-.5952998-.2006711-.4814925-1.8457383.7485019-5.9106376 3.0771744-7.1543624.4858697-1.1036913-2.2936549.9706376-4.2502651 2.4481879-5.7166284.4907718-.4902468-.2342617-1.1818451-.752953-.7528791-2.0520806 1.73775-4.1818121 4.6048186-2.4756712 7.3143079 1.8514094 2.941481 6.0109732.4814924 8.1354698-.8491776m-32.9205369 7.7345194c.0724161.0131316.13349.0131316.2063423.021886.3345973.0481492.4737584-.40708.1391611-.5165101l-.0222483-.0087544c1.5333892-2.3724445 3.3346308-4.6179502 5.3810402-6.7759117.3010067-.3107815-.1395973-.7266159-.4685235-.4683608-1.4609731 1.1687134-2.7993624 2.4862518-4.0147315 3.9132203-.9086913-11.954144 5.9049664-23.5174037 16.6107718-28.8212617 7.0256711-3.4798772 15.3007383-4.1850447 22.9842617-2.4674299-.1897651.6044919.7472819.8561811.9479531.2573796l.010906-.0275764c3.0781208.7717011 6.0502346 1.94129 8.7876506 3.4798771 5.905403 3.3122303 9.618692 8.2746664 9.992551 15.1827697.278758 5.1475919-.742047 10.4046138-2.587349 15.1976521-3.747316 9.7480333-11.230168 17.8808781-20.7428526 22.1661611-10.7001342 4.819301-23.1622483 4.94624-34.6266778 3.418596 1.5111409-2.214865 1.4997986-5.344566-.3568457-7.126088.0894295-.161957.1060067-.354553-.0222483-.551528-1.5778859-2.385576-4.5722483-3.672474-7.460604-3.580552.947953-4.8893373 2.7208389-9.2709185 5.2414429-13.2935689" fill="#fff"/><path d="m47.9002013 14.7686862c-.3961073.2013513-.1116778.8001528.2901007.6937868 3.9418792-1.0124473 7.1037584-1.3538692 11.0905705-.2013514.2730872.0840423.4680872-.3523649.2006711-.4701117-3.4960402-1.5328968-8.1241275-1.7902764-11.5813423-.0223237" fill="#131514"/><path d="m48.2906376 74.9508634c.3119127.2757638.0165772.7047298-.3289262.6959754 0 .1269389.0052349.2626322.0222483.4027028.1391611 1.0636605.9143624 2.1316983 2.0686577 2.1360755 1.3606376.0131316 2.4643289-1.2781435 2.341745-2.5956819-.010906-.0962985.0335906-.1619566.0946644-.2057286-.0222483-.0437721-.0444966-.0831669-.0501677-.1400706-.0222484-.1400705-.0335906-.280141-.0554027-.4202115l-.0785235-.0393949c-.2839933-.1882197-.2896644-.6697122-.0274832-.8491775-.0056712-.0700353-.0170135-.1400706-.0279195-.214483-.1116779-.0919213-.2229195-.2057286-.3625168-.2713867-.2508389-.1313161-.5466107-.1925969-.8253691-.2188602-.4794295-.0525264-.9867785.0043772-1.4387248.170711-.7080202.2626322-1.2319463.7703879-1.4884564 1.4050825.0501678.043772.1003356.0962984.1561745.1444477" fill="#f6c036"/><path d="m61.1985906 54.8056576c-5.9324497 4.4367339-7.7895302 11.6875723-7.7502685 18.7445005.0165772.0612809.0279195.1313161.0335907.2013514 2.1912416-6.4638171 6.523557-12.2150254 12.1833557-16.098043 5.7876174-3.9723126 12.7578859-5.7739697 19.7220469-5.6842371-3.4515436-1.2759549-7.2708389-1.1078703-10.9400671-.9625471-4.6503355.1904084-9.423255.9402234-13.2486577 3.7989753" fill="#d5e9ff"/><g fill="#131514"><path d="m79.5325168 75.2310044c-2.0516443 1.73775-4.1818121 4.6048186-2.4756712 7.3143079 1.8514094 2.941481 6.0109732.4814924 8.1354698-.8491776.2451678-.1532022.0837584-.5952998-.2006711-.4814925-1.8457383.7485019-5.9106376 3.0771744-7.1539262.4858697-1.1041275-2.2936549.9702014-4.2502651 2.4477517-5.7166284.4907718-.4902468-.2342617-1.1818451-.752953-.7528791"/><path d="m77.5532886 58.9513075c-.4519463.1790276-.2787584.9122093.2063423.749815 2.5537584-.8504907 5.0237584-1.3481788 7.7280201-1.1525178.3402685.0280141.3289262-.4924354 0-.5313926-2.665-.2797033-5.4307718-.0840423-7.9343624.9340954"/><path d="m80.2854698 56.2772736c-.3847651.1619565-.1003356.8224766.2844295.6710253 2.7265101-1.0741658 5.3526846-1.404207 8.2523826-.9003908.2674161.0446475.3847651-.3414219.1116778-.4140835-2.8552013-.749815-5.938557-.5370829-8.6484899.643449"/></g><path d="m88.6547651 52.1425667c1.6673154.1623943 3.3176175.4364073 4.9461074.8110959 1.260302-2.886766 3.3957047-5.2421395 6.1667114-6.8087407.3402681-.1960988.6303691.3134078.3071141.5257021-2.4761074 1.6059962-4.3436577 3.8436228-5.5092953 6.5124041 1.1542953.2967744 2.2863423.643449 3.4013758 1.0408991 2.6152685-4.9628738 5.7710405-9.6679304 9.0441615-14.2224111-7.4771816 1.7009815-14.9434568 4.8398744-18.3561749 12.1410506" fill="#fff"/><path d="m93.6732886 90.0959891c-1.260302 1.996005-2.6876846 5.3752064-.3681879 7.1873689 2.1244966 1.6545831 5.2414429-.0525265 6.8865103-1.6239427.239933-.2276146-.066745-.6171857-.3511748-.4552292-1.572651.9192128-4.0928188 2.7313753-5.8827181 1.3175384-1.895906-1.5057582-.312349-4.3159231.6020134-5.9048481.3345974-.5734138-.5295973-1.0767922-.8864429-.5208873" fill="#131514"/><path d="m113.57943 82.0638198c-.044497.236369-.106007.4596064-.150504.687221.440604-.1050529.892114-.2101058 1.349295-.302027.150504-.0306405.306678-.0656581.457182-.0962985l.044933-.021886c7.822684-2.7445069 13.265234-9.8881038 13.348557-18.1986632-4.399061 3.3625681-8.971745 6.5574892-13.800504 9.2604127-.195.1094301-.373423.0700352-.501678-.0350177.044497.9848709.033591 1.9828734-.016577 2.9721215 2.854765-.9892481 5.447785-2.3155409 7.839698-4.2152474.217249-.1715864.529598.1269389.312349.3151587-2.386678 2.0923035-5.158121 3.7074918-8.19698 4.613573-.128255 1.7071095-.373422 3.3967102-.685771 5.0206529" fill="#fff"/><path d="m114.28745 72.6790945.039261.6784666c.128255.1050529.306678.1444478.501678.0350177 4.828759-2.7029235 9.401443-5.8978446 13.800504-9.2604127-.083323 8.3105594-5.525873 15.4541563-13.348557 18.1986632l-.044933.021886c-.150504.0306404-.306678.065658-.457182.0962985l.156175.7616335c.111678.2232374.34594.3851939.669195.2932726 8.826912-2.5212695 14.765033-11.5667614 14.274261-20.6306377-.027483-.4250265-.546174-.8671241-.958859-.5537163-4.711845 3.6422714-9.618691 6.9488113-14.553456 10.2763618z" fill="#131514"/><path d="m41.5781879 112.634212c-.0052349-.013131-.0104698-.026263-.0157047-.039395.0052349.013132.0104698.026264.0157047.039395m-.0178859-.043772c-.0026174-.004377-.0047986-.013131-.0074161-.017509.0026175.004378.0047987.013132.0074161.017509m-.4741963-2.438102c-.0017433-2.446857 1.3593305-4.814925 3.7804715-5.716629.3904362-.144447.7808725-.245123 1.1656376-.315158.0052349 0 .0104698 0 .0161409.004377-.0056711-.004377-.010906-.004377-.0161409-.004377-.3847651.070035-.7752014.170711-1.1656376.315158-2.421141.901704-3.7822148 3.269772-3.7804715 5.716629m11.1429211-4.28966c-.0026174-.004377-.0052349-.004377-.0078523-.008755.0026174.004378.0052349.004378.0078523.008755m-5.9642953-1.70711c-.0026174 0-.0047986 0-.0074161 0zm.0095974 0c.1238926 0 .2460402-.035017.3459396-.100675-.0998994.065658-.2216108.100675-.3459396.100675m.3516107-.105053c.0065436-.004377.0130872-.008754.0196309-.017509.2002349-.017508.3987248-.026263.595906-.026263-.1971812 0-.3961074.008755-.595906.026263-.0065437.008755-.0130873.013132-.0196309.017509m.6238255-.043772c-.0026174 0-.0047987 0-.0074161 0z" fill="#898c88"/><path d="m53.440906 113.509653c.8816443-1.068038 1.4409061-2.394331 1.4404698-3.654965-.0004362-1.426969-.7197986-2.766393-2.5035906-3.532404-.1094966-.043772-.153557-.135693-.1544295-.231992-.0004362-.065658.0200671-.131316.054094-.192597-.016141-.013131-.0322819-.026263-.0484229-.035017-.0026174-.004377-.0052349-.004377-.0078523-.008755-1.4701342-1.107432-3.1636242-1.842803-4.9714094-1.84718-.0026174 0-.0047987 0-.0074161 0 0 0-.0004362 0-.0008725 0-.1971812 0-.3956711.008755-.595906.026263-.0065437.008755-.0130873.013132-.0196309.017509-.001745 0-.0039262 0-.0056711.004378-.0998994.065658-.222047.100675-.3459396.100675-.0030537 0-.0061074 0-.0095974 0-.0026174 0-.0047986 0-.0074161 0-.0702349 0-.1413422-.013131-.2089597-.03064-.0056711-.004377-.010906-.004377-.0161409-.004377-.3847651.070035-.7752014.170711-1.1656376.315158-2.421141.901704-3.7822148 3.269772-3.7804698 5.716629.0008725.783519.1404698 1.571416.429698 2.324295.0117785.03064.0244295.065658.0370805.096298.0026175.004378.0047987.013132.0074161.017509.0008725 0 .001745.004377.0021812.004377.0052349.013132.0104698.026264.0157047.039395.0444967.105053.0916108.205729.1413423.306405-.0013087.021886-.0021812.048149-.0026174.070035-.0095974.293272-.2757047.499001-.5330873.499001-.1557383 0-.3079866-.074412-.3987248-.249501-2.5393624-4.823678 1.6808389-9.358462 6.5405704-9.358462.3991611 0 .8026846.030641 1.2070806.096299 3.537047.555905 10.7188926 6.688368 5.0987919 9.45476-.0654362.030641-.1295637.04815-.1906376.056904" fill="#0f1211"/><path d="m53.0378188 112.677984c2.6187584-3.225999-3.0135571-5.988015-5.6698322-5.988015-.0946645 0-.1849665.004377-.2713423.013132-2.858255.231992-5.250604 3.422973-5.3771141 6.237516-.0497315-.100676-.0968456-.201352-.1413423-.306405-.0052349-.013131-.0104698-.026263-.0157047-.039395-.0222483-.052526-.0348993-.087544-.0466778-.118184-.2892282-.752879-.4288255-1.540776-.429698-2.324295-.001745-2.446857 1.3593288-4.814925 3.7804698-5.716629.3904362-.144447.7808725-.245123 1.1656376-.315158.0837584.021886.1548657.035017.2251006.035017.1413423 0 .2630537-.035017.3629531-.100675.2251006-.039395.4240268-.04815.621208-.04815 1.8160738.004377 3.5095638.739748 4.979698 1.84718.0239933.017509.0401342.030641.0562752.043772-.0340269.061281-.0545302.126939-.054094.192597.0008725.096299.0449329.18822.1544295.231992 1.783792.766011 2.5031544 2.105435 2.5035906 3.532404.0004363 1.260634-.5588255 2.586927-1.4404698 3.654965-.0187583 0-.0370805.004377-.0549664.004377-.39 0-.6412752-.472738-.3481208-.836046z" fill="#998677"/><path d="m114.315369 77.0300353c-.314094-.0656581-.612483-.2232374-.827986-.4420976-.097282-.1006757-.194128-.2013514-.29141-.3020271-.166644-.170711-.276141-.385194-.332852-.6171858.006107-.258255.009161-.51651.009161-.7747651 0-.021886 0-.043772 0-.065658.144396-.5602821.56406-1.0373974 1.193557-1.0373974.050604 0 .102517.0043772.156174.0131316.028792 0 .058457.0043772.088994.0043772h.032282c.007416.2670095.011342.5340189.011342.8010284.000436.5734137-.015705 1.1468274-.044497 1.7202411 2.854765-.9892481 5.447785-2.3155409 7.839698-4.2152474.046242-.0350176.09641-.0525264.145269-.0525264.0951 0 .183657.0612808.22161.1400705-1.247651.9980025-2.580805 2.0923035-3.978523 3.0202707-1.335336.7528791-2.74745 1.3656877-4.222819 1.8077853" fill="#0f1211"/><path d="m112.869981 75.6687248c-.0765-.2713866-.07-.5646593.0105-.8404231v.065658c0 .2582551-.0035.5165101-.0105.7747651" fill="#997b55"/><path d="m114.626846 77.0606757c-.103826 0-.208524-.0087544-.311477-.0306404 1.475369-.4420976 2.887483-1.0549062 4.222819-1.8077853-1.126812.7485019-2.296376 1.3831965-3.49604 1.7771448-.13349.0437721-.27396.0612809-.415302.0612809m-.316712-.7309931c.028792-.5734137.044933-1.1468274.044497-1.7202411 0-.2670095-.003926-.5340189-.011342-.8010284.926577-.0350176 2.641443-1.4882493 3.343355-1.9334109 1.241544-.7852704 2.458658-1.6116865 3.643054-2.481437.035336-.0258255.070235-.051651.10557-.0774765 2.455604-1.6475795 4.849262-3.3914576 7.193625-5.1839226-.008289.8487398-.072853 1.6847858-.189765 2.5055115-1.218423 2.0712929-3.573256 3.7088049-5.319094 5.0845601-.198927.1567039-.400034.3177851-.603323.4797416-.037953-.0787897-.12651-.1400705-.22161-.1400705-.048859 0-.099027.0175088-.145269.0525264-2.391913 1.8997065-4.984933 3.2259993-7.839698 4.2152474" fill="#ffedd0"/><path d="m121.435268 69.3160887c2.270202-1.6650884 4.622853-3.3380557 6.446779-5.5008322.155738-.1851557.332852-.2617568.505168-.2617568.454564 0 .877718.532268.805302 1.0273298-.107316.7305553-.375604 1.4142746-.753389 2.0568481.116912-.8207257.181476-1.6567717.189765-2.5055115-2.344363 1.792465-4.738021 3.5363431-7.193625 5.1839226" fill="#0f1211"/><path d="m47.2981879 74.0316506c.0117785-.0262633.0244295-.0481493.0370806-.0700353-.0126511.021886-.0253021.043772-.0370806.0700353m.0475504-.0875441c.6801006-1.1643363 2.0568791-1.8121625 3.4118456-1.8165397-1.3549665.0043772-2.731745.6522034-3.4118456 1.8165397m3.4188255-1.8165397c-.0004363 0-.0008725 0-.001745 0zm23.9064765-22.2147478c.1025167-.0035017.2054698-.0078789.308859-.0118184-.1033892.0039395-.2063423.0083167-.308859.0118184m.3171476-.0122562c1.1019463-.0433343 2.2579866-.0945476 3.4240604-.0945476-1.1660738 0-2.3221141.0512133-3.4240604.0945476m3.4327853-.0945476c-.0021813 0-.0043625 0-.0061074 0z" fill="#898c88"/><path d="m47.2454027 74.4080901c-.635604 0-1.1704363-.7660107-.9933222-1.4138369.3385235.3501763.6866443.6959754 1.0461074 1.0373974.0117785-.0262633.0244295-.0481493.0370806-.0700353.0034899-.0043772.0069798-.0087544.0104698-.0175088.6801006-1.1643363 2.0568791-1.8121625 3.4118456-1.8165397h.0052349.001745c.3289261 0 .6561073.0393949.9719463.1181845.1505033.0306405.2953355.0831669.440604.1313162-.0065436-.2188602-.0100336-.4429731-.0100336-.6657728-.0034899-6.911605 3.0305705-14.1186713 8.6916779-18.086169 3.9645637-2.7751473 8.8600671-3.5359054 13.5884899-3.70399.0741611-.0026263.1487584-.0052526.223792-.0083167.1025167-.0035017.2054698-.0078789.308859-.0118184.0030537 0 .0052349 0 .0082886-.0004378 1.1019463-.0433343 2.2579866-.0945476 3.4240604-.0945476h.0026175.0061074c3.0196644.0004378 6.1069463.3449237 8.5058389 2.0559727-.845-.0647826-1.6895638-.1405082-2.535-.2192979-2.0189262-.5821681-4.1434228-.7344948-6.2740269-.7344948-1.2275839 0-2.457349.0503378-3.6705369.0984871-.0588926.0026263-.1177852.0048149-.1766778.0074412-3.6762081.0630318-7.3013759.6416981-10.8218457 2.3715691-7.043557 3.4614929-10.9963422 11.0839559-10.5792953 18.8250411.041443.7703879-.5261074 1.1512046-1.1189597 1.1512046-.0205034 0-.0410067 0-.0615101 0-.1609731-.0569036-.3319798-.0962984-.5003691-.1181845-.3751678-.1663337-.6739933-.5121328-.7110738-1.0330201l-.0004363-.0262632c-.3969798.1575793-.7856711.3282903-1.1333557.5996769-.5605704.4377204-.9976845 1.0111341-1.572651 1.4357229-.1744966.1313161-.3537919.1882198-.5256711.1882198" fill="#0f1211"/><path d="m42.5448993 70.5049373c-.113859-.0941099-.2251006-.1904083-.334161-.28802-.0353356-.0315159-.0680537-.0643449-.0985906-.0980494.0414429-.0538396.0824496-.1076792.1225838-.1623942.0985906.1842803.2015437.3672474.3101678.5484636m-5.8761745-20.115003c-.0026174-.0017509-.0052349-.0030641-.0074161-.004815.0021812.0017509.0047987.0030641.0074161.004815m-.0139597-.0087545c-.0065436-.0039394-.012651-.0078789-.0183221-.0122561.0056711.0043772.0117785.0083167.0183221.0122561m-.0205034-.0135693c-.2538926-.1759636-.229463-.4828056-.0684899-.6784666-.1609731.195661-.1854027.502503.0684899.6784666" fill="#898c88"/><path d="m46.1883893 72.9285952c-.5104027-.2188602-.9972484-.599677-1.4182215-.8623092-.7573155-.4727381-1.5312081-.9853086-2.2252685-1.5613487-.1086241-.1812162-.2115772-.3641833-.3101678-.5484636-.0401342.054715-.0811409.1085546-.1225838.1623942-.6739933-.7436869-.1361074-1.8874503.6792281-2.1864133l.0021812-.0551528c.7355034-3.3288636 1.7933893-6.6323395.7843625-10.0369287-.5858725-1.9758699-1.9081208-3.7770893-3.6574497-4.8438139-.9374832-1.0321447-2.029396-1.9180908-3.239094-2.5996214-.0043624-.0021886-.0082886-.0048149-.012651-.0070035-.0026174-.0017509-.0052349-.0030641-.0074161-.004815-.0021812-.0013131-.0043624-.0026263-.0065436-.0039395-.0065436-.0039394-.012651-.0078789-.0183221-.0122561-.0008725-.0004377-.0013088-.0008755-.0021813-.0013132-.2538926-.1759636-.229463-.4828056-.0684899-.6784666.1225839-.0555905.2643624-.0866686.4262081-.0866686.0510402 0 .1033892.003064.1579194.0096298.0410067.0043772.0824497.0096299.1230202.0148825 4.5665771 2.5041984 7.5936577 7.2972367 7.590604 12.4588356-.0004363.8925119-.0916107 1.7964045-.2809396 2.7011726-.3180201 1.5048827-.8921141 2.8981467-1.6616443 4.162721.066745.0389571.1334899.1006756.1893289.1842802.9501342 1.3941395 1.960906 2.6271979 3.0781208 3.7945982" fill="#0f1211"/><path d="m90.2064765 53.2815152c-.7725839 0-1.5639262-.6132463-1.7078859-1.3481788-.0584564.014007-.1195302.0231991-.1845302.0231991-.0135235 0-.027047-.0004377-.0410067-.0013131-.2866107-.0175088-.5727852-.0363308-.8598322-.0569037.2643624-.6290042.5610067-1.2291188.8855704-1.8016571.1404698.0687221.2805034.1383196.4196645.2092303.1339262.0682844.2316443.1654583.3010067.2775148.8833892-1.1205642 1.8487919-2.1759081 2.8783221-3.1651562-1.2908389 1.344677-2.3927852 2.9051503-3.2430201 4.7243162.947953.092359 1.8902349.2206111 2.8259732.3830054-.0894296.0998002-.1788591.2000382-.2682886.3007139-.285302.3204113-.6434564.4552292-1.0059732.4552292" fill="#0f1211"/><path d="m47.2981879 74.0316506c-.3594631-.341422-.7075839-.6872211-1.0461074-1.0373974.0030537-.0131316.0065437-.0262632.0104698-.0393948-.0248657-.0087544-.0492953-.0175088-.074161-.0262632-1.1172148-1.1674003-2.1279866-2.4004587-3.0781208-3.7945982-.055839-.0836046-.1225839-.1453231-.1893289-.1842802.7695302-1.2645743 1.3436242-2.6578383 1.6616443-4.162721.1893289-.9047681.2805033-1.8086607.2809396-2.7011726.0030537-5.1615989-3.0240269-9.9546372-7.590604-12.4588356 8.7880872 1.113123 10.7699328 11.8280805 6.7320805 18.5470886.8087919.5672856 1.5652349 1.2488163 2.2723826 1.9329733.4196644.4062045 1.0264765.8684372 1.3440604 1.4239044.8402013-.505567 1.885-.7896476 2.8028523-.7975265-.0492953-7.9209883 4.0042617-15.2129724 10.7202013-19.4807462 4.2446309-2.6976708 9.3647987-3.999889 14.482349-3.999889 4.4130202 0 8.8238591.9677998 12.6719463 2.8438694-.3245637.5725383-.621208 1.1726529-.8855704 1.8016571-.1622819-.0118184-.3245638-.0236369-.4864094-.0363308-2.3988926-1.711049-5.4861745-2.0555349-8.5058389-2.0559727-.0021813 0-.0043625 0-.0061074 0-.0008725 0-.001745 0-.0026175 0-1.1660738 0-2.3221141.0512133-3.4240604.0945476-.0030537.0004378-.0052349.0004378-.0082886.0004378-.1033892.0039395-.2063423.0083167-.308859.0118184-.0750336.0030641-.1496309.0056904-.223792.0083167-4.7284228.1680846-9.6239262.9288427-13.5884899 3.70399-5.6611074 3.9674977-8.6951678 11.174564-8.6916779 18.086169 0 .2227997.00349.4469126.0100336.6657728-.1452685-.0481493-.2901007-.1006757-.440604-.1313162-.315839-.0787896-.6430202-.1181845-.9719463-.1181845-.0004363 0-.0008725 0-.001745 0-.001745 0-.0034899 0-.0052349 0-1.3549665.0043772-2.731745.6522034-3.4118456 1.8165397-.00349.0087544-.0069799.0131316-.0104698.0175088-.0126511.021886-.0253021.043772-.0370806.0700353m-7.3777181-21.0350914c-.8371477-.5108197-1.7720134-.8526793-2.7705705-.9651735-1.2995637-.1466363-1.5024161-1.9259697-.5841275-2.3422418-.1609731.195661-.1854027.502503.0684899.6784666.0008725.0004377.0013088.0008755.0021813.0013132.0056711.0043772.0117785.0083167.0183221.0122561.0021812.0013132.0043624.0026264.0065436.0039395.0021812.0017509.0047987.0030641.0074161.004815.0043624.0021886.0082886.0048149.012651.0070035 1.209698.6815306 2.3016108 1.5674767 3.239094 2.5996214" fill="#ffedd0"/><path d="m94.4851342 45.1692431c.859396-.6771535 1.7488926-1.3153498 2.6602014-1.9150267 1.95-1.2820831 5.5961074-3.6877944 8.3522814-3.6877944.45849 0 .891678.0660958 1.288658.2153585.328926.1234371.550973.502503.339832.8377968-.407886.6491393-.926577 1.0312692-1.511577 1.3464279.462416-.6578937.928322-1.3127234 1.39641-1.9644891-4.466678 1.015949-8.9289937 2.5449064-12.5258058 5.167727" fill="#0f1211"/><path d="m51.6889597 73.3787538c-.1710067-.01-.3424496-.055-.5003691-.135.1683893.025.339396.07.5003691.135" fill="#cea432"/><path d="m84.3918121 51.64269c-3.1501007-.2941481-6.3015101-.6342568-9.4175839-.6342568-.2351342 0-.469396.0017509-.7036577.0056903.0588926-.0026263.1177852-.0048149.1766778-.0074412 1.2131879-.0481493 2.442953-.0984871 3.6705369-.0984871 2.1306041 0 4.2551007.1523267 6.2740269.7344948" fill="#58a2b5"/><path d="m91.4807383 52.5255721c-.9357383-.1623943-1.8780202-.2906464-2.8259732-.3830054.8502349-1.8191659 1.9521812-3.3796392 3.2430201-4.7243162.8240604-.7918362 1.6895638-1.5416513 2.587349-2.2490074 3.5968121-2.6228206 8.0591278-4.151778 12.5258058-5.167727-.468088.6517657-.933994 1.3065954-1.39641 1.9644891-.497315.2678849-1.043053.4871828-1.609295.7804555-1.568725.8119713-3.109094 1.6834726-4.5914431 2.6464575-3.0602349 1.9885638-5.5184563 4.4419866-7.9330536 7.1326539" fill="#ffedd0"/><path d="m38.7840604 79.4243658c-.8109732 0-1.363255-.8754408-.9955034-1.7377499 1.2227853-2.8583142 5.4979531-3.1034376 8.141141-3.2653942h.0680537c.5924161 0 1.0666107.4771152 1.2485235 1.0067569.4523825 1.3131612 1.4068792 2.9721215 2.795 2.9721215.3930537 0 .8210067-.1313161 1.2825503-.4464748.1391611-.0919213.2765772-.1313161.4048322-.1313161.2054698 0 .3873826.1006757.5178188.2626322-.5649329.6346946-1.3872483 1.050529-2.2645302 1.050529-.1334899 0-.2678523-.0131316-.4035235-.0306405-1.6546644-.236369-2.6772147-1.8734433-2.6785235-3.4754999 0-.1838426.0135235-.3676851.041443-.5471505-.1618457-.1050529-.3293624-.2188602-.4907718-.3326675-.0580202.2188602-.220302.3895712-.5003692.3895712-.0170134 0-.0340268 0-.0519127 0-.3934899-.0306405-.7861074-.0481493-1.1765436-.0481493-1.2751343 0-2.5315101.170711-3.7525504.6171858-1.1564765.4202115-2.1284228 1.3613104-2.1301678 2.3199181-.0008724.4158343.1810403.8316687.6089933 1.2081083-.0257382.0131316-.0514765.0262632-.0772147.0393948-.2037249.1006757-.4022148.1488249-.586745.1488249m13.39-.1488249c.0488591-.3501763.104698-.7003526.1666443-1.050529.155302.2845183.1657718.665335-.0785235.9498533-.0292282.0350176-.0588926.0700353-.0881208.1006757" fill="#0f1211"/><path d="m49.6085235 80.5624389c-1.780302 0-3.499094-1.5801707-4.4906712-3.3398067-.9261409.0787897-1.8518456.192597-2.742651.4596065-1.1093624.3326675-1.9233892 1.0417745-2.9271812 1.5539074-.427953-.3764396-.6098657-.792274-.6089933-1.2081083.001745-.9586077.9736913-1.8997066 2.1301678-2.3199181 1.2210403-.4464748 2.4774161-.6171858 3.7525504-.6171858.3904362 0 .7830537.0175088 1.1765436.0481493h.0519127c.2800672 0 .442349-.170711.5003692-.3895712.1614094.1138073.3289261.2276146.4907718.3326675-.0279195.1794654-.041443.3633079-.041443.5471505.0013088 1.6020566 1.0238591 3.2391309 2.6785235 3.4754999.1356712.0175089.2700336.0306405.4035235.0306405.8772819 0 1.6995973-.4158344 2.2645302-1.050529.0353356.0393949.0671812.0875441.0942282.1400705-.0619463.3501764-.1177852.7003527-.1666443 1.050529-.8183893.9148356-1.6991611 1.286898-2.5655369 1.286898" fill="#ffedd0"/><path d="m32.8677517 82.1863815c-1.3868121 0-2.8246645-.3282903-3.8389262-.7047298-4.2843289-1.5933023-7.6054362-4.893714-10.0850336-8.7850484.6927517.9323445 1.4400336 1.8296713 2.2418457 2.6832261 2.146745 2.2805232 4.7005033 4.2240018 7.5945302 5.4539961 1.1381543.4858696 2.7308725 1.0811694 4.3113758 1.352556-.0745973 0-.1491946 0-.2237919 0m1.4304362-1.2387487c-.0056711 0-.010906 0-.0161409 0zm.0013087 0c.3044967 0 .5893625-.0350176.8419464-.1050529-.2525839.0700353-.5374497.1050529-.8419464.1050529m-4.1290268-1.0023797c-.0069799-.0043772-.0135235-.0043772-.0205034-.0087544.0069799.0043772.0135235.0043772.0205034.0087544m-.0244295-.0087544c-.0069799-.0043772-.0139598-.0043772-.0209396-.0087544.0069798.0043772.0139597.0043772.0209396.0087544m-.0279195-.0087544c-.014396-.0087544-.0292282-.0131316-.0436242-.0175088.014396.0043772.0292282.0087544.0436242.0175088m-.0567114-.021886c-.0047987-.0043772-.0095973-.0043772-.0148322-.0043772.0052349 0 .0100335 0 .0148322.0043772" fill="#898c88"/><path d="m33.0915436 82.1863815c-1.5805033-.2713866-3.1732215-.8666864-4.3113758-1.352556-2.8940269-1.2299943-5.4477852-3.1734729-7.5945302-5.4539961-.8018121-.8535548-1.549094-1.7508816-2.2418457-2.6832261-1.7772483-2.7856526-3.1217449-5.8733322-4.0779865-8.8454537-1.7427853-5.4181031-1.966141-10.8585299-1.316141-16.3028962-.0702349.9783051-.1051342 1.9592365-.104698 2.9397302.0021813 2.8810757.3114766 5.7599627.9379195 8.5696899 1.2825503 5.7796601 3.8978188 11.3802926 8.0351342 15.6611981 2.146745 2.2148652 4.7061745 4.0926857 7.6111074 5.1738551.0056712.0043772.0117785.0043772.0174497.0087544.0052349 0 .0100335 0 .0148322.0043772.0043624 0 .0087248.0043772.0130872.0043772.014396.0043772.0292282.0087544.0436242.0175088h.0069799c.0069798.0043772.0139597.0043772.0209396.0087544h.0039261c.0069799.0043772.0135235.0043772.0205034.0087544 1.1076174.4114572 2.7936913.9980025 4.1115772 1.0023797h.0161409.0013087c.3044967 0 .5893625-.0350176.8419464-.1050529.0039261 0 .0078523-.0043772.0117785-.0043772 1.0622483-.3107815 1.6228188-.9586077 1.62151-1.7421272-.0008724-.4464748-.1880201-.9367216-.5727852-1.4357229-.5165101-.665335-1.1080537-1.0636605-1.7632886-1.3175384.066745-.0043772.1330537-.0087544.19849-.0087544 1.5682885 0 2.829463 1.5320214 2.430302 3.2172449-.456745 1.930347-2.1489262 2.5869276-3.9759061 2.6350768" fill="#0f1211"/><path d="m20.890302 25.0039022c1.2821141-2.0165779 2.7749329-3.8729501 4.5207718-5.474569.185839-.170711.4113759-.2438103.6369128-.2438103.166208 0 .3328523.0398326.4829194.1103056-2.051208 1.6655261-3.9458053 3.5398448-5.640604 5.6080737" fill="#c8cac4"/><path d="m15.7884564 36.8262923c1.1865772-4.0896216 2.8067785-8.21251 5.1018456-11.8223901 1.6947987-2.0682289 3.589396-3.9425476 5.640604-5.6080737.4480202.2092303.7520806.6885341.4868457 1.1840336-2.6257383 2.177659-4.9578859 4.7164373-6.8860738 7.5830682-1.8069128 2.6897918-3.2595974 5.6093868-4.3432215 8.663362" fill="#0f1211"/><path d="m34.2981879 80.9476328c-.0056711 0-.010906 0-.0161409 0-1.3178859-.0043772-3.0039598-.5909225-4.1115772-1.0023797-.0069799-.0043772-.0135235-.0043772-.0205034-.0087544-.0013087 0-.0026174 0-.0039261 0-.0069799-.0043772-.0139598-.0043772-.0209396-.0087544-.0021812 0-.0043624 0-.0069799 0-.014396-.0087544-.0292282-.0131316-.0436242-.0175088-.0043624 0-.0087248-.0043772-.0130872-.0043772-.0047987-.0043772-.0095973-.0043772-.0148322-.0043772-.0056712-.0043772-.0117785-.0043772-.0174497-.0087544-2.9049329-1.0811694-5.4643624-2.9589899-7.6111074-5.1738551-4.1373154-4.2809055-6.7525839-9.881538-8.0351342-15.6611981-.6264429-2.8097272-.9357382-5.6886142-.9379195-8.5696899-.0004362-.9804937.0344631-1.9614251.104698-2.9397302.2901007-2.4306613.7542618-4.8613227 1.3353356-7.2924218.2704698-1.1323826.5697315-2.2796478.9034564-3.4295393 1.0836241-3.0539752 2.5363087-5.9735702 4.3432215-8.663362 1.9281879-2.8666309 4.2603355-5.4054092 6.8860738-7.5830682-.0231208.0428966-.050604.0862309-.0824497.1291275-3.4733557 4.6836083-6.8821476 9.2941172-8.8116443 14.8921234-1.9185906 5.5660525-1.9709396 11.4078689-1.3684899 17.2081019.5727852 5.5130884 2.2414094 11.348339 4.8431543 16.2394267 1.4020806 2.6368276 3.1553356 5.1580971 5.4434229 7.1015757 1.1604027.9804937 2.46651 1.7858992 3.8764429 2.3593129.4789933.192597 1.4618457.6565806 2.1515436.6565806.1395974 0 .2674162-.0175088.3760403-.0612809.480302-.1925969 2.6968456-2.446857.6225168-2.5212694-.0964094-.0043772-.1234564-.148825-.0235571-.1750882.1326175-.0306404.2643625-.0525264.3939262-.0656581.6552349.2538779 1.2467785.6522034 1.7632886 1.3175384.3847651.4990013.5719128.9892481.5727852 1.4357229.0013088.7835195-.5592617 1.4313457-1.62151 1.7421272-.0039262 0-.0078524.0043772-.0117785.0043772-.2525839.0700353-.5374497.1050529-.8419464.1050529-.0004362 0-.0008724 0-.0013087 0" fill="#ffedd0"/></g></svg>