<?xml version="1.0" encoding="UTF-8"?>
<svg width="130px" height="129px" viewBox="0 0 130 129" version="1.1" xmlns="http://www.w3.org/2000/svg" xmlns:xlink="http://www.w3.org/1999/xlink">
    <!-- Generator: Sketch 50 (54983) - http://www.bohemiancoding.com/sketch -->
    <title>Group</title>
    <desc>Created with Sketch.</desc>
    <defs></defs>
    <g id="Page-1" stroke="none" stroke-width="1" fill="none" fill-rule="evenodd">
        <g id="2" transform="translate(-698.000000, -493.000000)">
            <g id="Silver" transform="translate(434.000000, 132.000000)">
                <g id="Group" transform="translate(264.000000, 361.000000)">
                    <path d="M0.00785234899,71.3724991 C0.00785234899,103.05689 27.3383893,128.737946 61.0524497,128.737946 C94.7665101,128.737946 122.097047,103.05689 122.097047,71.3724991 C122.097047,39.6902969 94.7665101,14.0061772 61.0524497,14.0061772 C27.3383893,14.0061772 0.00785234899,39.6902969 0.00785234899,71.3724991" id="Fill-201" fill="#E2E2E2" opacity="0.5"></path>
                    <path d="M99.7675839,46.1449219 C100.107852,45.9488231 100.397953,46.4583297 100.074698,46.670624 C97.5985906,48.2766202 95.7310403,50.5142468 94.5654027,53.1830281 C95.719698,53.4798025 96.851745,53.8264771 97.9667785,54.2239272 C100.582047,49.2610534 103.737819,44.5559968 107.01094,40.0015161 C99.5337584,41.7024976 92.0674832,44.8413905 88.6547651,52.1425667 C90.3220805,52.304961 91.9723826,52.578974 93.6008725,52.9536626 C94.8611745,50.0668966 96.9965772,47.7115231 99.7675839,46.1449219 M53.4819128,73.7515095 C55.6731544,67.2876924 60.0054698,61.5364841 65.6652685,57.6534665 C71.4528859,53.6811539 78.4231544,51.8794968 85.3873154,51.9692294 C81.9357718,50.6932745 78.1164765,50.8613591 74.4472483,51.0066823 C69.7969128,51.1970907 65.0239933,51.9469057 61.1985906,54.8056576 C55.2661409,59.2423915 53.4090604,66.4932299 53.4483221,73.5501581 C53.4648993,73.611439 53.4762416,73.6814742 53.4819128,73.7515095 M47.9839597,76.0495416 C48.1231208,77.1132021 48.8983221,78.1812399 50.0526174,78.1856171 C51.413255,78.1987487 52.5169463,76.9074736 52.3943624,75.5899352 C52.3834564,75.4936367 52.427953,75.4279786 52.4890268,75.3842066 C52.4667785,75.3404345 52.4445302,75.3010397 52.4388591,75.244136 C52.4166107,75.1040655 52.4052685,74.963995 52.3834564,74.8239245 L52.3049329,74.7845296 C52.0209396,74.5963099 52.0152685,74.1148174 52.2774497,73.9353521 C52.2717785,73.8653168 52.2604362,73.7952815 52.2495302,73.7208691 C52.1378523,73.6289478 52.0266107,73.5151405 51.8870134,73.4494824 C51.6361745,73.3181663 51.3404027,73.2568855 51.0616443,73.2306222 C50.5822148,73.1780958 50.0748658,73.2349994 49.6229195,73.4013332 C48.9148993,73.6639654 48.3909732,74.1717211 48.1344631,74.8064157 C48.1846309,74.8501877 48.2347987,74.9027141 48.2906376,74.9508634 C48.6025503,75.2266272 48.3072148,75.6555932 47.9617114,75.6468388 C47.9617114,75.7737777 47.9669463,75.909471 47.9839597,76.0495416 M54.5131879,106.856303 C56.3698322,108.637825 56.3811745,111.767526 54.8700336,113.982391 C66.3344631,115.510035 78.7965772,115.383096 89.4967114,110.563795 C99.009396,106.278512 106.492248,98.1456672 110.239564,88.3976339 C112.084866,83.6045956 113.105671,78.3475737 112.826913,73.1999818 C112.453054,66.2918785 108.739765,61.3294424 102.834362,58.0172121 C100.096946,56.478625 97.1248322,55.3090361 94.0467114,54.537335 L94.0358054,54.5649114 C93.8351342,55.1637129 92.8980872,54.9120237 93.0878523,54.3075318 C85.4043289,52.589917 77.1292617,53.2950845 70.1035906,56.7749617 C59.3977852,62.0788197 52.5841275,73.6420794 53.4928188,85.5962234 C54.7081879,84.1692549 56.0465772,82.8517165 57.5075503,81.6830031 C57.8364765,81.424748 58.2770805,81.8405824 57.9760738,82.1513639 C55.9296644,84.3093254 54.1284228,86.5548311 52.5950336,88.9272756 L52.6172819,88.93603 C52.9518792,89.0454601 52.8127181,89.5006893 52.4781208,89.4525401 C52.4052685,89.4437857 52.3441946,89.4437857 52.2717785,89.4306541 C49.7511745,93.4533045 47.9782886,97.8348857 47.0303356,102.724223 C49.9186913,102.632301 52.9130537,103.919199 54.4909396,106.304775 C54.6191946,106.50175 54.6026174,106.694346 54.5131879,106.856303 M50.9447315,115.352456 C54.5354362,113.995523 56.9443624,108.287649 52.3777852,106.322284 C52.1936913,106.243494 52.1936913,106.042143 52.2774497,105.897695 C50.6323826,104.641438 48.7033221,103.849164 46.6455705,104.033006 C46.4784899,104.164323 46.238557,104.186209 46.0322148,104.120551 C45.6474497,104.190586 45.2570134,104.291262 44.8665772,104.435709 C41.6719799,105.621932 40.3222483,109.368818 41.5158054,112.476633 C42.9431879,116.192879 47.6550336,116.608713 50.9447315,115.352456 M44.9171812,95.1779229 C46.1495638,93.9479286 47.2698322,92.9455489 48.9707383,92.5253373 C49.5003356,91.4397907 50.0857718,90.3936389 50.727047,89.3781276 C48.9816443,89.4788033 47.3871812,90.1266295 45.9432215,91.3084746 C45.4576846,91.7024229 44.7719128,91.058974 45.2404362,90.6037447 C46.8183221,89.0629689 49.0654027,88.3538619 51.2234899,88.6208713 C51.6361745,87.9993084 52.0597651,87.390877 52.5169463,86.8043317 C52.2883557,86.6949016 52.0985906,86.489173 52.0654362,86.1827687 C52.0431879,85.9682857 52.0266107,85.7625572 52.0095973,85.5568286 C47.125,85.6968991 42.3577517,87.9511591 39.8148993,92.3020999 C39.0174497,93.6677875 36.8484564,98.4301854 41.5432886,97.6641747 C42.9375168,97.4321829 43.9801342,96.1146445 44.9171812,95.1779229 M42.0955705,80.5361756 C45.2461074,81.4991605 48.6806376,81.0176681 51.8761074,80.5887021 C51.9315101,80.5799477 51.9760067,80.5887021 52.0209396,80.5930793 C52.1042617,79.6869981 52.2325168,78.7896713 52.4000336,77.8967216 C51.7587584,78.741522 50.6882215,79.2667865 49.5784228,79.1048299 C47.7326846,78.8421977 46.6734899,76.8330611 46.9413423,75.0821795 C46.7794966,74.9771266 46.6119799,74.8633193 46.4505705,74.749512 C46.3890604,74.9815038 46.2106376,75.1609692 45.8982886,75.1390832 C44.2200671,75.0165214 42.564094,75.1259515 40.9691946,75.7081197 C39.1963087,76.3515686 37.8579195,78.2250119 39.7813087,79.4900239 C40.495,79.9540075 41.2815436,80.2910522 42.0955705,80.5361756 M45.3852685,73.913466 C44.1083893,72.7841474 43.0099329,71.4110185 42.2347315,69.9564737 C40.484094,72.3114094 37.9970805,74.0973086 35.1981544,75.0646707 C36.0510067,75.3666978 36.8148658,75.8131726 37.4007383,76.487262 C38.8281208,74.7407576 43.327953,73.9222205 45.3852685,73.913466 M39.9488255,12.1449901 C39.5082215,8.88835036 39.9152349,5.73326174 41.0416107,2.71167785 C37.517651,5.43079695 35.8394295,9.36984279 35.4769128,13.8678576 C36.9322148,13.2077752 38.4263423,12.6369878 39.9488255,12.1449901 M22.4180201,74.7188716 C24.5647651,76.9337368 27.1241946,78.8115573 30.0291275,79.8927267 C31.384094,80.3961051 33.7594295,81.2452827 35.1532215,80.8382027 C36.8262081,80.3479559 37.2554698,79.0216631 36.2019463,77.6603526 C35.0197315,76.1327085 33.4418456,76.0145239 31.6126846,75.8350586 C30.692651,75.7431373 30.6813087,74.4737482 31.6126846,74.3949585 C37.1049664,73.9353521 42.0397315,69.8951928 43.2162752,64.4123071 C44.3928188,58.9456171 41.4486242,53.0823524 36.6813758,50.3969378 C36.1404362,50.0949107 36.6198658,49.2781244 37.1664765,49.5687708 C42.5863423,52.4835509 45.8760403,58.6103233 44.5825839,64.7869958 C44.2645638,66.2918785 43.6904698,67.6851425 42.9209396,68.9497168 C42.9876846,68.9886739 43.0544295,69.0503924 43.1102685,69.133997 C44.3648993,70.975049 45.7255369,72.5346468 47.2981879,74.0316506 C48.1174497,72.517138 50.0857718,71.8364828 51.7365101,72.2457513 C51.8870134,72.2763918 52.0318456,72.3289182 52.1771141,72.3770675 C51.9707718,65.2680505 55.0148658,57.7204377 60.8587584,53.6251257 C64.8233221,50.8499784 69.7188255,50.0892203 74.4472483,49.9211357 C78.6068121,49.7701222 83.6645973,49.361729 87.1549664,52.0305103 C87.2217114,52.0305103 87.2888926,52.0362007 87.3556376,52.0362007 C87.8629866,50.7996405 88.4933557,49.6751368 89.217953,48.6456185 C88.4431879,48.2823105 89.1176174,47.1516788 89.8928188,47.4931007 C90.7404362,47.8734797 90.0324161,43.2467751 89.9150671,42.6759877 C89.6698993,41.4954558 89.3684564,40.3315573 89.0116107,39.1847298 C88.1975839,36.5605961 87.0934564,34.0432661 85.7611745,31.6428074 C83.3129866,27.2564113 80.0625503,23.3344366 76.203557,20.1285724 C67.8953356,13.2134656 57.0224497,10.2763617 46.3611409,11.943201 C35.9061745,13.5772112 26.0924832,19.3008431 20.1316779,28.1629303 C14.132047,37.0924263 12.0411409,48.5563235 14.3828859,59.0576735 C15.6654362,64.8373336 18.2807047,70.4379661 22.4180201,74.7188716 M34.227953,14.4666591 C33.6870134,8.78242202 37.3056376,3.24876078 42.0955705,0.518698669 C42.6530872,0.205290866 43.2162752,0.826416107 42.9431879,1.3691894 C41.2313758,4.71468638 40.6010067,8.17793016 40.7685235,11.8928632 C52.5282886,8.37928154 65.8157718,10.0356155 76.3265772,18.3102819 C81.8799329,22.6800446 86.3352685,28.4929714 89.0452013,35.0333896 C90.416745,38.3456198 91.5653691,42.0491721 91.7887248,45.6581768 L91.7887248,45.7308384 C96.160302,41.7191309 102.349262,39.7108698 108.215403,38.5469712 C108.656007,38.4572385 109.202181,38.9553643 108.873255,39.4088427 C105.276879,44.3043076 102.059597,49.4234476 98.7363087,54.5036305 C99.1040604,54.6432633 99.4665772,54.7890242 99.829094,54.9400378 C104.836275,57.0323413 109.888389,60.2662195 112.391544,65.2794312 C113.534933,67.5787765 114.103792,70.1017968 114.28745,72.6790945 L114.326711,73.3575611 C114.371208,74.342432 114.360302,75.3404345 114.310134,76.3296826 C117.164899,75.3404345 119.757919,74.0141417 122.149832,72.1144352 C122.367081,71.9428488 122.67943,72.2413741 122.462181,72.4295939 C120.075503,74.5218974 117.30406,76.1370857 114.265201,77.0431669 C114.136946,78.7502764 113.891779,80.4398771 113.57943,82.0638198 C113.534933,82.3001888 113.473423,82.5234262 113.428926,82.7510408 C113.86953,82.6459879 114.32104,82.540935 114.778221,82.4490138 L114.934396,83.2106473 C114.365537,83.3857354 113.791443,83.5389375 113.216913,83.6877625 C110.76349,94.0048322 104.206342,103.376426 95.2847651,109.075545 C83.017651,116.910741 68.0571812,117.072697 54.1729195,114.822814 C54.0669128,114.927867 53.9613423,115.03292 53.8496644,115.133596 C50.6210403,117.895611 44.2532215,118.342086 41.3871141,114.849077 C38.7945302,111.701868 39.3969799,106.401074 42.7647651,104.063647 C43.6512081,103.442084 44.6715772,103.048136 45.7368792,102.855539 C46.1827181,99.8965487 47.0189933,96.9594449 48.2177852,94.1667888 C45.4912752,95.6243977 43.8741275,99.3581527 40.3444966,99.0780116 C38.0193289,98.894169 37.1106376,96.7843567 37.506745,94.687676 C38.6941946,88.41952 45.9375503,84.2699306 51.9480872,84.6726334 C51.8870134,83.5783324 51.8979195,82.4884086 51.9651007,81.4072392 C47.6995302,82.3395837 41.8669799,83.0443135 38.3151007,79.8664634 C38.142349,80.6981322 37.6738255,81.4422569 36.8484564,81.8668456 C34.5957047,83.0268047 30.8989933,81.7399067 28.7801678,80.8338255 C25.8861409,79.6038312 23.3323826,77.6603526 21.1856376,75.3798294 C12.1414765,65.7547956 10.1286577,50.8556688 13.7695302,38.4856904 C17.0090604,27.4577627 24.7488591,19.1441392 34.227953,14.4666591" id="Fill-202" fill="#131514"></path>
                    <path d="M59.2808725,15.2611216 C59.5539597,15.3451639 59.7489597,14.9087567 59.4815436,14.7910099 C55.9855034,13.2581131 51.3574161,13.0007335 47.9002013,14.7686862 C47.504094,14.9700375 47.7885235,15.568839 48.190302,15.462473 C52.1321812,14.4500257 55.2940604,14.1086038 59.2808725,15.2611216 M55.3717114,17.2418064 C55.8123154,17.2641301 55.784396,16.6263715 55.3717114,16.5760337 C52.622953,16.2179784 49.5784228,16.1899643 46.8855034,16.9507223 C46.4505705,17.0737218 46.5229866,17.8235368 46.996745,17.7675086 C49.8292617,17.4094533 52.5060403,17.0680314 55.3717114,17.2418064 M38.5659396,62.3195659 C38.6832886,61.8774683 37.9970805,61.5531175 37.8020805,62.0009055 C37.1551342,63.4777741 36.7594631,65.0947132 36.2800336,66.6333004 C36.1517785,67.0303128 36.7481208,67.1760737 36.8877181,66.8009473 C37.4618121,65.3354594 38.1589262,63.8467724 38.5659396,62.3195659 M39.7368121,68.0935357 C40.6402685,66.7786236 41.3260403,64.4398835 40.2498322,63.0356765 C40.0325839,62.7502828 39.413557,62.7782969 39.4637248,63.2484086 C39.6364765,64.7589817 39.8929866,65.9171899 39.1068792,67.3323399 C38.2928523,68.7816321 36.943557,69.6767703 35.2984899,69.8614883 C34.9638926,69.9004455 34.9582215,70.3596142 35.2984899,70.3928809 C37.0940604,70.5719085 38.7386913,69.5423902 39.7368121,68.0935357 M46.3611409,11.943201 C57.0224497,10.2763617 67.8953356,13.2134656 76.203557,20.1285724 C80.0625503,23.3344366 83.3129866,27.2564113 85.7611745,31.6428074 C87.0934564,34.0432661 88.1975839,36.5605961 89.0116107,39.1847298 C89.3684564,40.3315573 89.6698993,41.4954558 89.9150671,42.6759877 C90.0324161,43.2467751 90.7404362,47.8734797 89.8928188,47.4931007 C89.1176174,47.1516788 88.4431879,48.2823105 89.217953,48.6456185 C88.4933557,49.6751368 87.8629866,50.7996405 87.3556376,52.0362007 C87.2888926,52.0362007 87.2217114,52.0305103 87.1549664,52.0305103 C83.6645973,49.361729 78.6068121,49.7701222 74.4472483,49.9211357 C69.7188255,50.0892203 64.8233221,50.8499784 60.8587584,53.6251257 C55.0148658,57.7204377 51.9707718,65.2680505 52.1771141,72.3770675 C52.0318456,72.3289182 51.8870134,72.2763918 51.7365101,72.2457513 C50.0857718,71.8364828 48.1174497,72.517138 47.2981879,74.0316506 C45.7255369,72.5346468 44.3648993,70.975049 43.1102685,69.133997 C43.0544295,69.0503924 42.9876846,68.9886739 42.9209396,68.9497168 C43.6904698,67.6851425 44.2645638,66.2918785 44.5825839,64.7869958 C45.8760403,58.6103233 42.5863423,52.4835509 37.1664765,49.5687708 C36.6198658,49.2781244 36.1404362,50.0949107 36.6813758,50.3969378 C41.4486242,53.0823524 44.3928188,58.9456171 43.2162752,64.4123071 C42.0397315,69.8951928 37.1049664,73.9353521 31.6126846,74.3949585 C30.6813087,74.4737482 30.692651,75.7431373 31.6126846,75.8350586 C33.4418456,76.0145239 35.0197315,76.1327085 36.2019463,77.6603526 C37.2554698,79.0216631 36.8262081,80.3479559 35.1532215,80.8382027 C33.7594295,81.2452827 31.384094,80.3961051 30.0291275,79.8927267 C27.1241946,78.8115573 24.5647651,76.9337368 22.4180201,74.7188716 C18.2807047,70.4379661 15.6654362,64.8373336 14.3828859,59.0576735 C12.0411409,48.5563235 14.132047,37.0924263 20.1316779,28.1629303 C26.0924832,19.3008431 35.9061745,13.5772112 46.3611409,11.943201" id="Fill-203" fill="#FFFFFF"></path>
                    <path d="M35.2984899,69.8614883 C34.9638926,69.9008832 34.9582215,70.3596142 35.2984899,70.3928809 C37.0940604,70.5719085 38.7386913,69.5423902 39.7368121,68.0935357 C40.6402685,66.7786236 41.3260403,64.4398835 40.2498322,63.0356765 C40.0325839,62.7502828 39.413557,62.7782969 39.4637248,63.2484086 C39.6364765,64.7589817 39.8929866,65.9171899 39.1068792,67.3327776 C38.2928523,68.7816321 36.943557,69.6767703 35.2984899,69.8614883" id="Fill-204" fill="#131514"></path>
                    <path d="M36.2800336,66.6333004 C36.1517785,67.0303128 36.7481208,67.1760737 36.8877181,66.8009473 C37.4618121,65.3350217 38.1589262,63.8472101 38.5659396,62.3195659 C38.6832886,61.8774683 37.9970805,61.5531175 37.8020805,62.0004678 C37.1551342,63.4777741 36.7594631,65.0947132 36.2800336,66.6333004" id="Fill-205" fill="#131514"></path>
                    <path d="M41.0416107,2.71167785 C37.517651,5.43079695 35.8394295,9.36984279 35.4769128,13.8678576 C36.9322148,13.2077752 38.4267785,12.6369878 39.9488255,12.1449901 C39.5082215,8.88878808 39.9152349,5.73326174 41.0416107,2.71167785" id="Fill-206" fill="#FFEDD0"></path>
                    <path d="M40.9691946,75.7081197 C39.1963087,76.3515686 37.8579195,78.2250119 39.7813087,79.4900239 C40.495,79.9540075 41.2815436,80.2910522 42.0955705,80.5361756 C45.2461074,81.4991605 48.6806376,81.0176681 51.8761074,80.5887021 C51.9315101,80.5799477 51.9760067,80.5887021 52.0209396,80.5930793 C52.1042617,79.6869981 52.2325168,78.7896713 52.4000336,77.8967216 C51.7587584,78.741522 50.6882215,79.2667865 49.5784228,79.1048299 C47.7326846,78.8421977 46.6734899,76.8330611 46.9413423,75.0821795 C46.7794966,74.9771266 46.6119799,74.8633193 46.4505705,74.749512 C46.3890604,74.9815038 46.2106376,75.1609692 45.8982886,75.1390832 C44.2200671,75.0165214 42.564094,75.1259515 40.9691946,75.7081197" id="Fill-207" fill="#BBBBBB"></path>
                    <path d="M39.8148993,92.3020999 C39.0174497,93.6677875 36.8484564,98.4301854 41.5437248,97.6641747 C42.9375168,97.4321829 43.9801342,96.1146445 44.9171812,95.1779229 C46.1491275,93.9479286 47.2702685,92.9455489 48.9707383,92.5253373 C49.5003356,91.4397907 50.0857718,90.3936389 50.727047,89.3781276 C48.9820805,89.4788033 47.3871812,90.1266295 45.9427852,91.3084746 C45.4576846,91.7024229 44.7719128,91.058974 45.2404362,90.6037447 C46.8183221,89.0629689 49.0654027,88.3538619 51.2234899,88.6208713 C51.6361745,87.9993084 52.0597651,87.390877 52.5169463,86.8043317 C52.2883557,86.6949016 52.0990268,86.489173 52.0654362,86.1827687 C52.0431879,85.9682857 52.0261745,85.7625572 52.0095973,85.5568286 C47.125,85.6968991 42.3577517,87.9511591 39.8148993,92.3020999" id="Fill-208" fill="#EC8185"></path>
                    <path d="M52.366443,110.314294 C52.3834564,110.056039 51.9707718,109.999135 51.920604,110.248636 C51.4464094,112.647344 48.8538255,113.956128 46.6398993,113.093819 C46.177047,112.914353 45.864698,113.684741 46.305302,113.894847 C48.9205705,115.107332 52.1544295,113.176986 52.366443,110.314294 M46.0322148,104.120551 C46.238557,104.186209 46.4784899,104.164323 46.6455705,104.033006 C48.7033221,103.849164 50.6323826,104.641438 52.2774497,105.897695 C52.1936913,106.042143 52.1936913,106.243494 52.3777852,106.322284 C56.9443624,108.287649 54.5354362,113.995523 50.9447315,115.352456 C47.6550336,116.608713 42.9431879,116.192879 41.5158054,112.476633 C40.3222483,109.368818 41.6719799,105.621932 44.8665772,104.435709 C45.2570134,104.291262 45.6474497,104.190586 46.0322148,104.120551" id="Fill-209" fill="#AE9988"></path>
                    <path d="M46.6398993,113.093819 C46.177047,112.914353 45.8651342,113.684741 46.305302,113.894847 C48.9205705,115.107332 52.1548658,113.176986 52.366443,110.314294 C52.3830201,110.056039 51.9707718,109.999135 51.920604,110.253013 C51.4464094,112.647344 48.8538255,113.956128 46.6398993,113.093819" id="Fill-210" fill="#131514"></path>
                    <path d="M46.8855034,16.9507223 C46.4505705,17.0737218 46.5229866,17.8235368 46.996745,17.7675086 C49.8292617,17.4094533 52.5060403,17.0684691 55.3721477,17.2418064 C55.8123154,17.2641301 55.784396,16.6263715 55.3721477,16.5760337 C52.622953,16.2179784 49.5784228,16.1899643 46.8855034,16.9507223" id="Fill-211" fill="#131514"></path>
                    <path d="M100.191611,95.6594153 C100.431544,95.4318007 100.12443,95.0422296 99.8404362,95.2041861 C98.2677852,96.1233989 95.7476174,97.9355614 93.9577181,96.5217245 C92.0618121,95.0159663 93.6453691,92.2058014 94.5597315,90.6168764 C94.8943289,90.0434626 94.0301342,89.5400842 93.6732886,90.0959891 C92.4129866,92.0876169 90.985604,95.4711955 93.3051007,97.283358 C95.4295973,98.9379411 98.5465436,97.2308315 100.191611,95.6594153 M88.8222819,56.0479081 C89.089698,56.0925556 89.207047,55.7064862 88.9339597,55.6338246 C86.0787584,54.8840096 82.9954027,55.0967417 80.2854698,56.2772736 C79.9007047,56.4392301 80.1851342,57.0997502 80.5698993,56.9487367 C83.2964094,55.8741331 85.9225839,55.5440919 88.8222819,56.0479081 M85.487651,58.5486047 C85.8279195,58.5766188 85.8165772,58.0561693 85.487651,58.0172121 C82.8222148,57.7375088 80.0568792,57.9331698 77.5532886,58.9513075 C77.1013423,59.1303351 77.2745302,59.8635168 77.7596309,59.7011225 C80.3133893,58.8506318 82.7833893,58.3529437 85.487651,58.5486047 M85.1923154,81.6961347 C85.4374832,81.5429325 85.2760738,81.1008349 84.9916443,81.2146422 C83.145906,81.9631441 79.0810067,84.2918166 77.8372819,81.7005119 C76.7335906,79.406857 78.8079195,77.4502468 80.2854698,75.9838835 C80.7762416,75.4936367 80.0512081,74.8020384 79.5325168,75.2310044 C77.4804362,76.9687544 75.3507047,79.835823 77.0568456,82.5453123 C78.908255,85.4867933 83.0678188,83.0268047 85.1923154,81.6961347 M52.2717785,89.4306541 C52.3441946,89.4437857 52.4052685,89.4437857 52.4781208,89.4525401 C52.8127181,89.5006893 52.9518792,89.0454601 52.6172819,88.93603 L52.5950336,88.9272756 C54.1284228,86.5548311 55.9296644,84.3093254 57.9760738,82.1513639 C58.2770805,81.8405824 57.8364765,81.424748 57.5075503,81.6830031 C56.0465772,82.8517165 54.7081879,84.1692549 53.4928188,85.5962234 C52.5841275,73.6420794 59.3977852,62.0788197 70.1035906,56.7749617 C77.1292617,53.2950845 85.4043289,52.589917 93.0878523,54.3075318 C92.8980872,54.9120237 93.8351342,55.1637129 94.0358054,54.5649114 L94.0467114,54.537335 C97.1248322,55.3090361 100.096946,56.478625 102.834362,58.0172121 C108.739765,61.3294424 112.453054,66.2918785 112.826913,73.1999818 C113.105671,78.3475737 112.084866,83.6045956 110.239564,88.3976339 C106.492248,98.1456672 99.009396,106.278512 89.4967114,110.563795 C78.7965772,115.383096 66.3344631,115.510035 54.8700336,113.982391 C56.3811745,111.767526 56.3698322,108.637825 54.5131879,106.856303 C54.6026174,106.694346 54.6191946,106.50175 54.4909396,106.304775 C52.9130537,103.919199 49.9186913,102.632301 47.0303356,102.724223 C47.9782886,97.8348857 49.7511745,93.4533045 52.2717785,89.4306541" id="Fill-212" fill="#FFFFFF"></path>
                    <path d="M47.9002013,14.7686862 C47.504094,14.9700375 47.7885235,15.568839 48.190302,15.462473 C52.1321812,14.4500257 55.2940604,14.1086038 59.2808725,15.2611216 C59.5539597,15.3451639 59.7489597,14.9087567 59.4815436,14.7910099 C55.9855034,13.2581131 51.3574161,13.0007335 47.9002013,14.7686862" id="Fill-213" fill="#131514"></path>
                    <path d="M48.2906376,74.9508634 C48.6025503,75.2266272 48.3072148,75.6555932 47.9617114,75.6468388 C47.9617114,75.7737777 47.9669463,75.909471 47.9839597,76.0495416 C48.1231208,77.1132021 48.8983221,78.1812399 50.0526174,78.1856171 C51.413255,78.1987487 52.5169463,76.9074736 52.3943624,75.5899352 C52.3834564,75.4936367 52.427953,75.4279786 52.4890268,75.3842066 C52.4667785,75.3404345 52.4445302,75.3010397 52.4388591,75.244136 C52.4166107,75.1040655 52.4052685,74.963995 52.3834564,74.8239245 L52.3049329,74.7845296 C52.0209396,74.5963099 52.0152685,74.1148174 52.2774497,73.9353521 C52.2717785,73.8653168 52.2604362,73.7952815 52.2495302,73.7208691 C52.1378523,73.6289478 52.0266107,73.5151405 51.8870134,73.4494824 C51.6361745,73.3181663 51.3404027,73.2568855 51.0616443,73.2306222 C50.5822148,73.1780958 50.0748658,73.2349994 49.6229195,73.4013332 C48.9148993,73.6639654 48.3909732,74.1717211 48.1344631,74.8064157 C48.1846309,74.8501877 48.2347987,74.9027141 48.2906376,74.9508634" id="Fill-214" fill="#F6C036"></path>
                    <path d="M61.1985906,54.8056576 C55.2661409,59.2423915 53.4090604,66.4932299 53.4483221,73.5501581 C53.4648993,73.611439 53.4762416,73.6814742 53.4819128,73.7515095 C55.6731544,67.2876924 60.0054698,61.5364841 65.6652685,57.6534665 C71.4528859,53.6811539 78.4231544,51.8794968 85.3873154,51.9692294 C81.9357718,50.6932745 78.1164765,50.8613591 74.4472483,51.0066823 C69.7969128,51.1970907 65.0239933,51.9469057 61.1985906,54.8056576" id="Fill-215" fill="#D5E9FF"></path>
                    <path d="M79.5325168,75.2310044 C77.4808725,76.9687544 75.3507047,79.835823 77.0568456,82.5453123 C78.908255,85.4867933 83.0678188,83.0268047 85.1923154,81.6961347 C85.4374832,81.5429325 85.2760738,81.1008349 84.9916443,81.2146422 C83.145906,81.9631441 79.0810067,84.2918166 77.8377181,81.7005119 C76.7335906,79.406857 78.8079195,77.4502468 80.2854698,75.9838835 C80.7762416,75.4936367 80.0512081,74.8020384 79.5325168,75.2310044" id="Fill-216" fill="#131514"></path>
                    <path d="M77.5532886,58.9513075 C77.1013423,59.1303351 77.2745302,59.8635168 77.7596309,59.7011225 C80.3133893,58.8506318 82.7833893,58.3529437 85.487651,58.5486047 C85.8279195,58.5766188 85.8165772,58.0561693 85.487651,58.0172121 C82.822651,57.7375088 80.0568792,57.9331698 77.5532886,58.9513075" id="Fill-217" fill="#131514"></path>
                    <path d="M80.2854698,56.2772736 C79.9007047,56.4392301 80.1851342,57.0997502 80.5698993,56.9482989 C83.2964094,55.8741331 85.9225839,55.5440919 88.8222819,56.0479081 C89.089698,56.0925556 89.207047,55.7064862 88.9339597,55.6338246 C86.0787584,54.8840096 82.9954027,55.0967417 80.2854698,56.2772736" id="Fill-218" fill="#131514"></path>
                    <path d="M88.6547651,52.1425667 C90.3220805,52.304961 91.9723826,52.578974 93.6008725,52.9536626 C94.8611745,50.0668966 96.9965772,47.7115231 99.7675839,46.1449219 C100.107852,45.9488231 100.397953,46.4583297 100.074698,46.670624 C97.5985906,48.2766202 95.7310403,50.5142468 94.5654027,53.1830281 C95.719698,53.4798025 96.851745,53.8264771 97.9667785,54.2239272 C100.582047,49.2610534 103.737819,44.5559968 107.01094,40.0015161 C99.5337584,41.7024976 92.0674832,44.8413905 88.6547651,52.1425667" id="Fill-219" fill="#FFFFFF"></path>
                    <path d="M93.6732886,90.0959891 C92.4129866,92.0919941 90.985604,95.4711955 93.3051007,97.283358 C95.4295973,98.9379411 98.5465436,97.2308315 100.191611,95.6594153 C100.431544,95.4318007 100.124866,95.0422296 99.8404362,95.2041861 C98.2677852,96.1233989 95.7476174,97.9355614 93.9577181,96.5217245 C92.0618121,95.0159663 93.6453691,92.2058014 94.5597315,90.6168764 C94.8943289,90.0434626 94.0301342,89.5400842 93.6732886,90.0959891" id="Fill-220" fill="#131514"></path>
                    <path d="M113.57943,82.0638198 C113.534933,82.3001888 113.473423,82.5234262 113.428926,82.7510408 C113.86953,82.6459879 114.32104,82.540935 114.778221,82.4490138 C114.928725,82.4183733 115.084899,82.3833557 115.235403,82.3527153 L115.280336,82.3308293 C123.10302,79.5863224 128.54557,72.4427255 128.628893,64.1321661 C124.229832,67.4947342 119.657148,70.6896553 114.828389,73.3925788 C114.633389,73.5020089 114.454966,73.462614 114.326711,73.3575611 C114.371208,74.342432 114.360302,75.3404345 114.310134,76.3296826 C117.164899,75.3404345 119.757919,74.0141417 122.149832,72.1144352 C122.367081,71.9428488 122.67943,72.2413741 122.462181,72.4295939 C120.075503,74.5218974 117.30406,76.1370857 114.265201,77.0431669 C114.136946,78.7502764 113.891779,80.4398771 113.57943,82.0638198" id="Fill-221" fill="#FFFFFF"></path>
                    <path d="M114.28745,72.6790945 L114.326711,73.3575611 C114.454966,73.462614 114.633389,73.5020089 114.828389,73.3925788 C119.657148,70.6896553 124.229832,67.4947342 128.628893,64.1321661 C128.54557,72.4427255 123.10302,79.5863224 115.280336,82.3308293 L115.235403,82.3527153 C115.084899,82.3833557 114.928725,82.4183733 114.778221,82.4490138 L114.934396,83.2106473 C115.046074,83.4338847 115.280336,83.5958412 115.603591,83.5039199 C124.430503,80.9826504 130.368624,71.9371585 129.877852,62.8732822 C129.850369,62.4482557 129.331678,62.0061581 128.918993,62.3195659 C124.207148,65.9618373 119.300302,69.2683772 114.365537,72.5959277 L114.28745,72.6790945" id="Fill-222" fill="#131514"></path>
                    <path d="M41.5781879,112.634212 C41.572953,112.621081 41.5677181,112.607949 41.5624832,112.594817 C41.5677181,112.607949 41.572953,112.621081 41.5781879,112.634212 M41.560302,112.59044 C41.5576846,112.586063 41.5555034,112.577309 41.5528859,112.572931 C41.5555034,112.577309 41.5576846,112.586063 41.560302,112.59044 M41.0861057,110.152338 C41.0843624,107.705481 42.4454362,105.337413 44.8665772,104.435709 C45.2570134,104.291262 45.6474497,104.190586 46.0322148,104.120551 C46.0374497,104.120551 46.0426846,104.120551 46.0483557,104.124928 C46.0426846,104.120551 46.0374497,104.120551 46.0322148,104.120551 C45.6474497,104.190586 45.2570134,104.291262 44.8665772,104.435709 C42.4454362,105.337413 41.0843624,107.705481 41.0861057,110.152338 M52.2290268,105.862678 C52.2264094,105.858301 52.2237919,105.858301 52.2211745,105.853923 C52.2237919,105.858301 52.2264094,105.858301 52.2290268,105.862678 M46.2647315,104.155568 C46.2621141,104.155568 46.2599329,104.155568 46.2573154,104.155568 C46.2599329,104.155568 46.2621141,104.155568 46.2647315,104.155568 M46.2743289,104.155568 C46.3982215,104.155568 46.5203691,104.120551 46.6202685,104.054893 C46.5203691,104.120551 46.3986577,104.155568 46.2743289,104.155568 M46.6259396,104.050515 C46.6324832,104.046138 46.6390268,104.041761 46.6455705,104.033006 C46.8458054,104.015498 47.0442953,104.006743 47.2414765,104.006743 C47.0442953,104.006743 46.8453691,104.015498 46.6455705,104.033006 C46.6390268,104.041761 46.6324832,104.046138 46.6259396,104.050515 M47.2497651,104.006743 C47.2471477,104.006743 47.2449664,104.006743 47.242349,104.006743 C47.2449664,104.006743 47.2471477,104.006743 47.2497651,104.006743" id="Fill-223" fill="#898C88"></path>
                    <path d="M53.440906,113.509653 C54.3225503,112.441615 54.8818121,111.115322 54.8813758,109.854688 C54.8809396,108.427719 54.1615772,107.088295 52.3777852,106.322284 C52.2682886,106.278512 52.2242282,106.186591 52.2233557,106.090292 C52.2229195,106.024634 52.2434228,105.958976 52.2774497,105.897695 C52.2613087,105.884564 52.2451678,105.871432 52.2290268,105.862678 C52.2264094,105.858301 52.2237919,105.858301 52.2211745,105.853923 C50.7510403,104.746491 49.0575503,104.01112 47.2497651,104.006743 C47.2471477,104.006743 47.2449664,104.006743 47.242349,104.006743 C47.242349,104.006743 47.2419128,104.006743 47.2414765,104.006743 C47.0442953,104.006743 46.8458054,104.015498 46.6455705,104.033006 C46.6390268,104.041761 46.6324832,104.046138 46.6259396,104.050515 C46.6241946,104.050515 46.6220134,104.050515 46.6202685,104.054893 C46.5203691,104.120551 46.3982215,104.155568 46.2743289,104.155568 C46.2712752,104.155568 46.2682215,104.155568 46.2647315,104.155568 C46.2621141,104.155568 46.2599329,104.155568 46.2573154,104.155568 C46.1870805,104.155568 46.1159732,104.142437 46.0483557,104.124928 C46.0426846,104.120551 46.0374497,104.120551 46.0322148,104.120551 C45.6474497,104.190586 45.2570134,104.291262 44.8665772,104.435709 C42.4454362,105.337413 41.0843624,107.705481 41.0861074,110.152338 C41.0869799,110.935857 41.2265772,111.723754 41.5158054,112.476633 C41.5275839,112.507273 41.5402349,112.542291 41.5528859,112.572931 C41.5555034,112.577309 41.5576846,112.586063 41.560302,112.59044 C41.5611745,112.59044 41.562047,112.594817 41.5624832,112.594817 C41.5677181,112.607949 41.572953,112.621081 41.5781879,112.634212 C41.6226846,112.739265 41.6697987,112.839941 41.7195302,112.940617 C41.7182215,112.962503 41.717349,112.988766 41.7169128,113.010652 C41.7073154,113.303924 41.4412081,113.509653 41.1838255,113.509653 C41.0280872,113.509653 40.8758389,113.435241 40.7851007,113.260152 C38.2457383,108.436474 42.4659396,103.90169 47.3256711,103.90169 C47.7248322,103.90169 48.1283557,103.932331 48.5327517,103.997989 C52.0697987,104.553894 59.2516443,110.686357 53.6315436,113.452749 C53.5661074,113.48339 53.5019799,113.500899 53.440906,113.509653" id="Fill-224" fill="#0F1211"></path>
                    <path d="M53.0378188,112.677984 C55.6565772,109.451985 50.0242617,106.689969 47.3679866,106.689969 C47.2733221,106.689969 47.1830201,106.694346 47.0966443,106.703101 C44.2383893,106.935093 41.8460403,110.126074 41.7195302,112.940617 C41.6697987,112.839941 41.6226846,112.739265 41.5781879,112.634212 C41.572953,112.621081 41.5677181,112.607949 41.5624832,112.594817 C41.5402349,112.542291 41.5275839,112.507273 41.5158054,112.476633 C41.2265772,111.723754 41.0869799,110.935857 41.0861074,110.152338 C41.0843624,107.705481 42.4454362,105.337413 44.8665772,104.435709 C45.2570134,104.291262 45.6474497,104.190586 46.0322148,104.120551 C46.1159732,104.142437 46.1870805,104.155568 46.2573154,104.155568 C46.3986577,104.155568 46.5203691,104.120551 46.6202685,104.054893 C46.8453691,104.015498 47.0442953,104.006743 47.2414765,104.006743 C49.0575503,104.01112 50.7510403,104.746491 52.2211745,105.853923 C52.2451678,105.871432 52.2613087,105.884564 52.2774497,105.897695 C52.2434228,105.958976 52.2229195,106.024634 52.2233557,106.090292 C52.2242282,106.186591 52.2682886,106.278512 52.3777852,106.322284 C54.1615772,107.088295 54.8809396,108.427719 54.8813758,109.854688 C54.8818121,111.115322 54.3225503,112.441615 53.440906,113.509653 C53.4221477,113.509653 53.4038255,113.51403 53.3859396,113.51403 C52.9959396,113.51403 52.7446644,113.041292 53.0378188,112.677984 Z" id="Fill-225" fill="#998677"></path>
                    <path d="M114.315369,77.0300353 C114.001275,76.9643772 113.702886,76.8067979 113.487383,76.5879377 C113.390101,76.487262 113.293255,76.3865863 113.195973,76.2859106 C113.029329,76.1151996 112.919832,75.9007166 112.863121,75.6687248 C112.869228,75.4104698 112.872282,75.1522148 112.872282,74.8939597 C112.872282,74.8720737 112.872282,74.8501877 112.872282,74.8283017 C113.016678,74.2680196 113.436342,73.7909043 114.065839,73.7909043 C114.116443,73.7909043 114.168356,73.7952815 114.222013,73.8040359 C114.250805,73.8040359 114.28047,73.8084131 114.311007,73.8084131 C114.321913,73.8084131 114.332383,73.8084131 114.343289,73.8084131 C114.350705,74.0754226 114.354631,74.342432 114.354631,74.6094415 C114.355067,75.1828552 114.338926,75.7562689 114.310134,76.3296826 C117.164899,75.3404345 119.757919,74.0141417 122.149832,72.1144352 C122.196074,72.0794176 122.246242,72.0619088 122.295101,72.0619088 C122.390201,72.0619088 122.478758,72.1231896 122.516711,72.2019793 C121.26906,73.1999818 119.935906,74.2942828 118.538188,75.22225 C117.202852,75.9751291 115.790738,76.5879377 114.315369,77.0300353" id="Fill-226" fill="#0F1211"></path>
                    <path d="M112.869981,75.6687248 C112.793481,75.3973382 112.799981,75.1040655 112.880481,74.8283017 C112.880481,74.8501877 112.880481,74.8720737 112.880481,74.8939597 C112.880481,75.1522148 112.876981,75.4104698 112.869981,75.6687248" id="Fill-227" fill="#997B55"></path>
                    <path d="M114.626846,77.0606757 C114.52302,77.0606757 114.418322,77.0519213 114.315369,77.0300353 C115.790738,76.5879377 117.202852,75.9751291 118.538188,75.22225 C117.411376,75.9707519 116.241812,76.6054465 115.042148,76.9993948 C114.908658,77.0431669 114.768188,77.0606757 114.626846,77.0606757 M114.310134,76.3296826 C114.338926,75.7562689 114.355067,75.1828552 114.354631,74.6094415 C114.354631,74.342432 114.350705,74.0754226 114.343289,73.8084131 C115.269866,73.7733955 116.984732,72.3201638 117.686644,71.8750022 C118.928188,71.0897318 120.145302,70.2633157 121.329698,69.3935652 C121.365034,69.3677397 121.399933,69.3419142 121.435268,69.3160887 C123.890872,67.6685092 126.28453,65.9246311 128.628893,64.1321661 C128.620604,64.9809059 128.55604,65.8169519 128.439128,66.6376776 C127.220705,68.7089705 124.865872,70.3464825 123.120034,71.7222377 C122.921107,71.8789416 122.72,72.0400228 122.516711,72.2019793 C122.478758,72.1231896 122.390201,72.0619088 122.295101,72.0619088 C122.246242,72.0619088 122.196074,72.0794176 122.149832,72.1144352 C119.757919,74.0141417 117.164899,75.3404345 114.310134,76.3296826" id="Fill-228" fill="#FFEDD0"></path>
                    <path d="M121.435268,69.3160887 C123.70547,67.6510003 126.058121,65.978033 127.882047,63.8152565 C128.037785,63.6301008 128.214899,63.5534997 128.387215,63.5534997 C128.841779,63.5534997 129.264933,64.0857677 129.192517,64.5808295 C129.085201,65.3113848 128.816913,65.9951041 128.439128,66.6376776 C128.55604,65.8169519 128.620604,64.9809059 128.628893,64.1321661 C126.28453,65.9246311 123.890872,67.6685092 121.435268,69.3160887" id="Fill-229" fill="#0F1211"></path>
                    <path d="M47.2981879,74.0316506 C47.3099664,74.0053873 47.3226174,73.9835013 47.3352685,73.9616153 C47.3226174,73.9835013 47.3099664,74.0053873 47.2981879,74.0316506 M47.3457383,73.9441065 C48.0258389,72.7797702 49.4026174,72.131944 50.7575839,72.1275668 C49.4026174,72.131944 48.0258389,72.7797702 47.3457383,73.9441065 M50.7645638,72.1275668 C50.7641275,72.1275668 50.7636913,72.1275668 50.7628188,72.1275668 C50.7636913,72.1275668 50.7641275,72.1275668 50.7645638,72.1275668 M74.6710403,49.912819 C74.773557,49.9093173 74.8765101,49.9049401 74.9798993,49.9010006 C74.8765101,49.9049401 74.773557,49.9093173 74.6710403,49.912819 M74.9881879,49.9005628 C76.0901342,49.8572285 77.2461745,49.8060152 78.4122483,49.8060152 C77.2461745,49.8060152 76.0901342,49.8572285 74.9881879,49.9005628 M78.4209732,49.8060152 C78.4187919,49.8060152 78.4166107,49.8060152 78.4148658,49.8060152 C78.4166107,49.8060152 78.4187919,49.8060152 78.4209732,49.8060152" id="Fill-230" fill="#898C88"></path>
                    <path d="M47.2454027,74.4080901 C46.6097987,74.4080901 46.0749664,73.6420794 46.2520805,72.9942532 C46.590604,73.3444295 46.9387248,73.6902286 47.2981879,74.0316506 C47.3099664,74.0053873 47.3226174,73.9835013 47.3352685,73.9616153 C47.3387584,73.9572381 47.3422483,73.9528609 47.3457383,73.9441065 C48.0258389,72.7797702 49.4026174,72.131944 50.7575839,72.1275668 C50.7593289,72.1275668 50.7610738,72.1275668 50.7628188,72.1275668 C50.7636913,72.1275668 50.7641275,72.1275668 50.7645638,72.1275668 C51.0934899,72.1275668 51.4206711,72.1669617 51.7365101,72.2457513 C51.8870134,72.2763918 52.0318456,72.3289182 52.1771141,72.3770675 C52.1705705,72.1582073 52.1670805,71.9340944 52.1670805,71.7112947 C52.1635906,64.7996897 55.197651,57.5926234 60.8587584,53.6251257 C64.8233221,50.8499784 69.7188255,50.0892203 74.4472483,49.9211357 C74.5214094,49.9185094 74.5960067,49.9158831 74.6710403,49.912819 C74.773557,49.9093173 74.8765101,49.9049401 74.9798993,49.9010006 C74.982953,49.9010006 74.9851342,49.9010006 74.9881879,49.9005628 C76.0901342,49.8572285 77.2461745,49.8060152 78.4122483,49.8060152 C78.4131208,49.8060152 78.4139933,49.8060152 78.4148658,49.8060152 C78.4166107,49.8060152 78.4187919,49.8060152 78.4209732,49.8060152 C81.4406376,49.806453 84.5279195,50.1509389 86.9268121,51.8619879 C86.0818121,51.7972053 85.2372483,51.7214797 84.3918121,51.64269 C82.3728859,51.0605219 80.2483893,50.9081952 78.1177852,50.9081952 C76.8902013,50.9081952 75.6604362,50.958533 74.4472483,51.0066823 C74.3883557,51.0093086 74.3294631,51.0114972 74.2705705,51.0141235 C70.5943624,51.0771553 66.9691946,51.6558216 63.4487248,53.3856926 C56.4051678,56.8471855 52.4523826,64.4696485 52.8694295,72.2107337 C52.9108725,72.9811216 52.3433221,73.3619383 51.7504698,73.3619383 C51.7299664,73.3619383 51.7094631,73.3619383 51.6889597,73.3619383 C51.5279866,73.3050347 51.3569799,73.2656399 51.1885906,73.2437538 C50.8134228,73.0774201 50.5145973,72.731621 50.4775168,72.2107337 L50.4770805,72.1844705 C50.0801007,72.3420498 49.6914094,72.5127608 49.3437248,72.7841474 C48.7831544,73.2218678 48.3460403,73.7952815 47.7710738,74.2198703 C47.5965772,74.3511864 47.4172819,74.4080901 47.2454027,74.4080901" id="Fill-231" fill="#0F1211"></path>
                    <path d="M42.5448993,70.5049373 C42.4310403,70.4108274 42.3197987,70.314529 42.2107383,70.2169173 C42.1754027,70.1854014 42.1426846,70.1525724 42.1121477,70.1188679 C42.1535906,70.0650283 42.1945973,70.0111887 42.2347315,69.9564737 C42.3333221,70.140754 42.4362752,70.3237211 42.5448993,70.5049373 M36.6687248,50.3899343 C36.6661074,50.3881834 36.6634899,50.3868702 36.6613087,50.3851193 C36.6634899,50.3868702 36.6661074,50.3881834 36.6687248,50.3899343 M36.6547651,50.3811798 C36.6482215,50.3772404 36.6421141,50.3733009 36.636443,50.3689237 C36.6421141,50.3733009 36.6482215,50.3772404 36.6547651,50.3811798 M36.6342617,50.3676105 C36.3803691,50.1916469 36.4047987,49.8848049 36.5657718,49.6891439 C36.4047987,49.8848049 36.3803691,50.1916469 36.6342617,50.3676105" id="Fill-232" fill="#898C88"></path>
                    <path d="M46.1883893,72.9285952 C45.6779866,72.709735 45.1911409,72.3289182 44.7701678,72.066286 C44.0128523,71.5935479 43.2389597,71.0809774 42.5448993,70.5049373 C42.4362752,70.3237211 42.3333221,70.140754 42.2347315,69.9564737 C42.1945973,70.0111887 42.1535906,70.0650283 42.1121477,70.1188679 C41.4381544,69.375181 41.9760403,68.2314176 42.7913758,67.9324546 L42.793557,67.8773018 C43.5290604,64.5484382 44.5869463,61.2449623 43.5779195,57.8403731 C42.992047,55.8645032 41.6697987,54.0632838 39.9204698,52.9965592 C38.9829866,51.9644145 37.8910738,51.0784684 36.6813758,50.3969378 C36.6770134,50.3947492 36.6730872,50.3921229 36.6687248,50.3899343 C36.6661074,50.3881834 36.6634899,50.3868702 36.6613087,50.3851193 C36.6591275,50.3838062 36.6569463,50.382493 36.6547651,50.3811798 C36.6482215,50.3772404 36.6421141,50.3733009 36.636443,50.3689237 C36.6355705,50.368486 36.6351342,50.3680482 36.6342617,50.3676105 C36.3803691,50.1916469 36.4047987,49.8848049 36.5657718,49.6891439 C36.6883557,49.6335534 36.8301342,49.6024753 36.9919799,49.6024753 C37.0430201,49.6024753 37.0953691,49.6055393 37.1498993,49.6121051 C37.190906,49.6164823 37.232349,49.621735 37.2729195,49.6269876 C41.8394966,52.131186 44.8665772,56.9242243 44.8635235,62.0858232 C44.8630872,62.9783351 44.7719128,63.8822277 44.5825839,64.7869958 C44.2645638,66.2918785 43.6904698,67.6851425 42.9209396,68.9497168 C42.9876846,68.9886739 43.0544295,69.0503924 43.1102685,69.133997 C44.0604027,70.5281365 45.0711745,71.7611949 46.1883893,72.9285952" id="Fill-233" fill="#0F1211"></path>
                    <path d="M90.2064765,53.2815152 C89.4338926,53.2815152 88.6425503,52.6682689 88.4985906,51.9333364 C88.4401342,51.9473434 88.3790604,51.9565355 88.3140604,51.9565355 C88.3005369,51.9565355 88.2870134,51.9560978 88.2730537,51.9552224 C87.986443,51.9377136 87.7002685,51.9188916 87.4132215,51.8983187 C87.6775839,51.2693145 87.9742282,50.6691999 88.2987919,50.0966616 C88.4392617,50.1653837 88.5792953,50.2349812 88.7184564,50.3058919 C88.8523826,50.3741763 88.9501007,50.4713502 89.0194631,50.5834067 C89.9028523,49.4628425 90.868255,48.4074986 91.8977852,47.4182505 C90.6069463,48.7629275 89.505,50.3234008 88.6547651,52.1425667 C89.6027181,52.2349257 90.545,52.3631778 91.4807383,52.5255721 C91.3913087,52.6253723 91.3018792,52.7256103 91.2124497,52.826286 C90.9271477,53.1466973 90.5689933,53.2815152 90.2064765,53.2815152" id="Fill-234" fill="#0F1211"></path>
                    <path d="M47.2981879,74.0316506 C46.9387248,73.6902286 46.590604,73.3444295 46.2520805,72.9942532 C46.2551342,72.9811216 46.2586242,72.96799 46.2625503,72.9548584 C46.2376846,72.946104 46.213255,72.9373496 46.1883893,72.9285952 C45.0711745,71.7611949 44.0604027,70.5281365 43.1102685,69.133997 C43.0544295,69.0503924 42.9876846,68.9886739 42.9209396,68.9497168 C43.6904698,67.6851425 44.2645638,66.2918785 44.5825839,64.7869958 C44.7719128,63.8822277 44.8630872,62.9783351 44.8635235,62.0858232 C44.8665772,56.9242243 41.8394966,52.131186 37.2729195,49.6269876 C46.0610067,50.7401106 48.0428523,61.4550681 44.005,68.1740762 C44.8137919,68.7413618 45.5702349,69.4228925 46.2773826,70.1070495 C46.697047,70.513254 47.3038591,70.9754867 47.621443,71.5309539 C48.4616443,71.0253869 49.506443,70.7413063 50.4242953,70.7334274 C50.375,62.8124391 54.428557,55.520455 61.1444966,51.2526812 C65.3891275,48.5550104 70.5092953,47.2527922 75.6268456,47.2527922 C80.0398658,47.2527922 84.4507047,48.220592 88.2987919,50.0966616 C87.9742282,50.6691999 87.6775839,51.2693145 87.4132215,51.8983187 C87.2509396,51.8865003 87.0886577,51.8746818 86.9268121,51.8619879 C84.5279195,50.1509389 81.4406376,49.806453 78.4209732,49.8060152 C78.4187919,49.8060152 78.4166107,49.8060152 78.4148658,49.8060152 C78.4139933,49.8060152 78.4131208,49.8060152 78.4122483,49.8060152 C77.2461745,49.8060152 76.0901342,49.8572285 74.9881879,49.9005628 C74.9851342,49.9010006 74.982953,49.9010006 74.9798993,49.9010006 C74.8765101,49.9049401 74.773557,49.9093173 74.6710403,49.912819 C74.5960067,49.9158831 74.5214094,49.9185094 74.4472483,49.9211357 C69.7188255,50.0892203 64.8233221,50.8499784 60.8587584,53.6251257 C55.197651,57.5926234 52.1635906,64.7996897 52.1670805,71.7112947 C52.1670805,71.9340944 52.1705705,72.1582073 52.1771141,72.3770675 C52.0318456,72.3289182 51.8870134,72.2763918 51.7365101,72.2457513 C51.4206711,72.1669617 51.0934899,72.1275668 50.7645638,72.1275668 C50.7641275,72.1275668 50.7636913,72.1275668 50.7628188,72.1275668 C50.7610738,72.1275668 50.7593289,72.1275668 50.7575839,72.1275668 C49.4026174,72.131944 48.0258389,72.7797702 47.3457383,73.9441065 C47.3422483,73.9528609 47.3387584,73.9572381 47.3352685,73.9616153 C47.3226174,73.9835013 47.3099664,74.0053873 47.2981879,74.0316506 M39.9204698,52.9965592 C39.0833221,52.4857395 38.1484564,52.1438799 37.1498993,52.0313857 C35.8503356,51.8847494 35.6474832,50.105416 36.5657718,49.6891439 C36.4047987,49.8848049 36.3803691,50.1916469 36.6342617,50.3676105 C36.6351342,50.3680482 36.6355705,50.368486 36.636443,50.3689237 C36.6421141,50.3733009 36.6482215,50.3772404 36.6547651,50.3811798 C36.6569463,50.382493 36.6591275,50.3838062 36.6613087,50.3851193 C36.6634899,50.3868702 36.6661074,50.3881834 36.6687248,50.3899343 C36.6730872,50.3921229 36.6770134,50.3947492 36.6813758,50.3969378 C37.8910738,51.0784684 38.9829866,51.9644145 39.9204698,52.9965592" id="Fill-235" fill="#FFEDD0"></path>
                    <path d="M94.4851342,45.1692431 C95.3445302,44.4920896 96.2340268,43.8538933 97.1453356,43.2542164 C99.0953356,41.9721333 102.741443,39.566422 105.497617,39.566422 C105.956107,39.566422 106.389295,39.6325178 106.786275,39.7817805 C107.115201,39.9052176 107.337248,40.2842835 107.126107,40.6195773 C106.718221,41.2687166 106.19953,41.6508465 105.61453,41.9660052 C106.076946,41.3081115 106.542852,40.6532818 107.01094,40.0015161 C102.544262,41.0174651 98.0819463,42.5464225 94.4851342,45.1692431" id="Fill-236" fill="#0F1211"></path>
                    <path d="M51.6889597,73.3787538 C51.517953,73.3687538 51.3465101,73.3237538 51.1885906,73.2437538 C51.3569799,73.2687538 51.5279866,73.3137538 51.6889597,73.3787538" id="Fill-237" fill="#CEA432"></path>
                    <path d="M84.3918121,51.64269 C81.2417114,51.3485419 78.090302,51.0084332 74.9742282,51.0084332 C74.739094,51.0084332 74.5048322,51.0101841 74.2705705,51.0141235 C74.3294631,51.0114972 74.3883557,51.0093086 74.4472483,51.0066823 C75.6604362,50.958533 76.8902013,50.9081952 78.1177852,50.9081952 C80.2483893,50.9081952 82.3728859,51.0605219 84.3918121,51.64269" id="Fill-238" fill="#58A2B5"></path>
                    <path d="M91.4807383,52.5255721 C90.545,52.3631778 89.6027181,52.2349257 88.6547651,52.1425667 C89.505,50.3234008 90.6069463,48.7629275 91.8977852,47.4182505 C92.7218456,46.6264143 93.587349,45.8765992 94.4851342,45.1692431 C98.0819463,42.5464225 102.544262,41.0174651 107.01094,40.0015161 C106.542852,40.6532818 106.076946,41.3081115 105.61453,41.9660052 C105.117215,42.2338901 104.571477,42.453188 104.005235,42.7464607 C102.43651,43.558432 100.896141,44.4299333 99.4137919,45.3929182 C96.353557,47.381482 93.8953356,49.8349048 91.4807383,52.5255721" id="Fill-239" fill="#FFEDD0"></path>
                    <path d="M38.7840604,79.4243658 C37.9730872,79.4243658 37.4208054,78.548925 37.788557,77.6866159 C39.0113423,74.8283017 43.2865101,74.5831783 45.929698,74.4212217 C45.9528188,74.4212217 45.9755034,74.4212217 45.9977517,74.4212217 C46.5901678,74.4212217 47.0643624,74.8983369 47.2462752,75.4279786 C47.6986577,76.7411398 48.6531544,78.4001001 50.0412752,78.4001001 C50.4343289,78.4001001 50.8622819,78.268784 51.3238255,77.9536253 C51.4629866,77.861704 51.6004027,77.8223092 51.7286577,77.8223092 C51.9341275,77.8223092 52.1160403,77.9229849 52.2464765,78.0849414 C51.6815436,78.719636 50.8592282,79.1354704 49.9819463,79.1354704 C49.8484564,79.1354704 49.714094,79.1223388 49.5784228,79.1048299 C47.9237584,78.8684609 46.9012081,77.2313866 46.8998993,75.62933 C46.8998993,75.4454874 46.9134228,75.2616449 46.9413423,75.0821795 C46.7794966,74.9771266 46.6119799,74.8633193 46.4505705,74.749512 C46.3925503,74.9683722 46.2302685,75.1390832 45.9502013,75.1390832 C45.9331879,75.1390832 45.9161745,75.1390832 45.8982886,75.1390832 C45.5047987,75.1084427 45.1121812,75.0909339 44.721745,75.0909339 C43.4466107,75.0909339 42.1902349,75.2616449 40.9691946,75.7081197 C39.8127181,76.1283312 38.8407718,77.0694301 38.8390268,78.0280378 C38.8381544,78.4438721 39.0200671,78.8597065 39.4480201,79.2361461 C39.4222819,79.2492777 39.3965436,79.2624093 39.3708054,79.2755409 C39.1670805,79.3762166 38.9685906,79.4243658 38.7840604,79.4243658 M52.1740604,79.2755409 C52.2229195,78.9253646 52.2787584,78.5751883 52.3407047,78.2250119 C52.4960067,78.5095302 52.5064765,78.8903469 52.2621812,79.1748652 C52.232953,79.2098828 52.2032886,79.2449005 52.1740604,79.2755409" id="Fill-240" fill="#0F1211"></path>
                    <path d="M49.6085235,80.5624389 C47.8282215,80.5624389 46.1094295,78.9822682 45.1178523,77.2226322 C44.1917114,77.3014219 43.2660067,77.4152292 42.3752013,77.6822387 C41.2658389,78.0149062 40.4518121,78.7240132 39.4480201,79.2361461 C39.0200671,78.8597065 38.8381544,78.4438721 38.8390268,78.0280378 C38.8407718,77.0694301 39.8127181,76.1283312 40.9691946,75.7081197 C42.1902349,75.2616449 43.4466107,75.0909339 44.721745,75.0909339 C45.1121812,75.0909339 45.5047987,75.1084427 45.8982886,75.1390832 C45.9161745,75.1390832 45.9331879,75.1390832 45.9502013,75.1390832 C46.2302685,75.1390832 46.3925503,74.9683722 46.4505705,74.749512 C46.6119799,74.8633193 46.7794966,74.9771266 46.9413423,75.0821795 C46.9134228,75.2616449 46.8998993,75.4454874 46.8998993,75.62933 C46.9012081,77.2313866 47.9237584,78.8684609 49.5784228,79.1048299 C49.714094,79.1223388 49.8484564,79.1354704 49.9819463,79.1354704 C50.8592282,79.1354704 51.6815436,78.719636 52.2464765,78.0849414 C52.2818121,78.1243363 52.3136577,78.1724855 52.3407047,78.2250119 C52.2787584,78.5751883 52.2229195,78.9253646 52.1740604,79.2755409 C51.3556711,80.1903765 50.4748993,80.5624389 49.6085235,80.5624389" id="Fill-241" fill="#FFEDD0"></path>
                    <path d="M32.8677517,82.1863815 C31.4809396,82.1863815 30.0430872,81.8580912 29.0288255,81.4816517 C24.7444966,79.8883494 21.4233893,76.5879377 18.9437919,72.6966033 C19.6365436,73.6289478 20.3838255,74.5262746 21.1856376,75.3798294 C23.3323826,77.6603526 25.8861409,79.6038312 28.7801678,80.8338255 C29.9183221,81.3196951 31.5110403,81.9149949 33.0915436,82.1863815 C33.0169463,82.1863815 32.942349,82.1863815 32.8677517,82.1863815 M34.2981879,80.9476328 C34.2925168,80.9476328 34.2872819,80.9476328 34.282047,80.9476328 C34.2872819,80.9476328 34.2925168,80.9476328 34.2981879,80.9476328 M34.2994966,80.9476328 C34.6039933,80.9476328 34.8888591,80.9126152 35.141443,80.8425799 C34.8888591,80.9126152 34.6039933,80.9476328 34.2994966,80.9476328 M30.1704698,79.9452531 C30.1634899,79.9408759 30.1569463,79.9408759 30.1499664,79.9364987 C30.1569463,79.9408759 30.1634899,79.9408759 30.1704698,79.9452531 M30.1460403,79.9364987 C30.1390604,79.9321215 30.1320805,79.9321215 30.1251007,79.9277443 C30.1320805,79.9321215 30.1390604,79.9321215 30.1460403,79.9364987 M30.1181208,79.9277443 C30.1037248,79.9189899 30.0888926,79.9146127 30.0744966,79.9102355 C30.0888926,79.9146127 30.1037248,79.9189899 30.1181208,79.9277443 M30.0614094,79.9058583 C30.0566107,79.9014811 30.0518121,79.9014811 30.0465772,79.9014811 C30.0518121,79.9014811 30.0566107,79.9014811 30.0614094,79.9058583" id="Fill-242" fill="#898C88"></path>
                    <path d="M33.0915436,82.1863815 C31.5110403,81.9149949 29.9183221,81.3196951 28.7801678,80.8338255 C25.8861409,79.6038312 23.3323826,77.6603526 21.1856376,75.3798294 C20.3838255,74.5262746 19.6365436,73.6289478 18.9437919,72.6966033 C17.1665436,69.9109507 15.822047,66.8232711 14.8658054,63.8511496 C13.1230201,58.4330465 12.8996644,52.9926197 13.5496644,47.5482534 C13.4794295,48.5265585 13.4445302,49.5074899 13.4449664,50.4879836 C13.4471477,53.3690593 13.756443,56.2479463 14.3828859,59.0576735 C15.6654362,64.8373336 18.2807047,70.4379661 22.4180201,74.7188716 C24.5647651,76.9337368 27.1241946,78.8115573 30.0291275,79.8927267 C30.0347987,79.8971039 30.040906,79.8971039 30.0465772,79.9014811 C30.0518121,79.9014811 30.0566107,79.9014811 30.0614094,79.9058583 C30.0657718,79.9058583 30.0701342,79.9102355 30.0744966,79.9102355 C30.0888926,79.9146127 30.1037248,79.9189899 30.1181208,79.9277443 C30.1207383,79.9277443 30.1229195,79.9277443 30.1251007,79.9277443 C30.1320805,79.9321215 30.1390604,79.9321215 30.1460403,79.9364987 C30.147349,79.9364987 30.1486577,79.9364987 30.1499664,79.9364987 C30.1569463,79.9408759 30.1634899,79.9408759 30.1704698,79.9452531 C31.2780872,80.3567103 32.9641611,80.9432556 34.282047,80.9476328 C34.2872819,80.9476328 34.2925168,80.9476328 34.2981879,80.9476328 C34.2986242,80.9476328 34.2990604,80.9476328 34.2994966,80.9476328 C34.6039933,80.9476328 34.8888591,80.9126152 35.141443,80.8425799 C35.1453691,80.8425799 35.1492953,80.8382027 35.1532215,80.8382027 C36.2154698,80.5274212 36.7760403,79.879595 36.7747315,79.0960755 C36.7738591,78.6496007 36.5867114,78.1593539 36.2019463,77.6603526 C35.6854362,76.9950176 35.0938926,76.5966921 34.4386577,76.3428142 C34.5054027,76.338437 34.5717114,76.3340598 34.6371477,76.3340598 C36.2054362,76.3340598 37.4666107,77.8660812 37.0674497,79.5513047 C36.6107047,81.4816517 34.9185235,82.1382323 33.0915436,82.1863815" id="Fill-243" fill="#0F1211"></path>
                    <path d="M20.890302,25.0039022 C22.1724161,22.9873243 23.6652349,21.1309521 25.4110738,19.5293332 C25.5969128,19.3586222 25.8224497,19.2855229 26.0479866,19.2855229 C26.2141946,19.2855229 26.3808389,19.3253555 26.530906,19.3958285 C24.479698,21.0613546 22.5851007,22.9356733 20.890302,25.0039022" id="Fill-244" fill="#C8CAC4"></path>
                    <path d="M15.7884564,36.8262923 C16.9750336,32.7366707 18.5952349,28.6137823 20.890302,25.0039022 C22.5851007,22.9356733 24.479698,21.0613546 26.530906,19.3958285 C26.9789262,19.6050588 27.2829866,20.0843626 27.0177517,20.5798621 C24.3920134,22.7575211 22.0598658,25.2962994 20.1316779,28.1629303 C18.3247651,30.8527221 16.8720805,33.7723171 15.7884564,36.8262923" id="Fill-245" fill="#0F1211"></path>
                    <path d="M34.2981879,80.9476328 C34.2925168,80.9476328 34.2872819,80.9476328 34.282047,80.9476328 C32.9641611,80.9432556 31.2780872,80.3567103 30.1704698,79.9452531 C30.1634899,79.9408759 30.1569463,79.9408759 30.1499664,79.9364987 C30.1486577,79.9364987 30.147349,79.9364987 30.1460403,79.9364987 C30.1390604,79.9321215 30.1320805,79.9321215 30.1251007,79.9277443 C30.1229195,79.9277443 30.1207383,79.9277443 30.1181208,79.9277443 C30.1037248,79.9189899 30.0888926,79.9146127 30.0744966,79.9102355 C30.0701342,79.9102355 30.0657718,79.9058583 30.0614094,79.9058583 C30.0566107,79.9014811 30.0518121,79.9014811 30.0465772,79.9014811 C30.040906,79.8971039 30.0347987,79.8971039 30.0291275,79.8927267 C27.1241946,78.8115573 24.5647651,76.9337368 22.4180201,74.7188716 C18.2807047,70.4379661 15.6654362,64.8373336 14.3828859,59.0576735 C13.756443,56.2479463 13.4471477,53.3690593 13.4449664,50.4879836 C13.4445302,49.5074899 13.4794295,48.5265585 13.5496644,47.5482534 C13.8397651,45.1175921 14.3039262,42.6869307 14.885,40.2558316 C15.1554698,39.123449 15.4547315,37.9761838 15.7884564,36.8262923 C16.8720805,33.7723171 18.3247651,30.8527221 20.1316779,28.1629303 C22.0598658,25.2962994 24.3920134,22.7575211 27.0177517,20.5798621 C26.9946309,20.6227587 26.9671477,20.666093 26.935302,20.7089896 C23.4619463,25.3925979 20.0531544,30.0031068 18.1236577,35.601113 C16.2050671,41.1671655 16.1527181,47.0089819 16.7551678,52.8092149 C17.327953,58.3223033 18.9965772,64.1575539 21.5983221,69.0486416 C23.0004027,71.6854692 24.7536577,74.2067387 27.041745,76.1502173 C28.2021477,77.130711 29.508255,77.9361165 30.9181879,78.5095302 C31.3971812,78.7021272 32.3800336,79.1661108 33.0697315,79.1661108 C33.2093289,79.1661108 33.3371477,79.148602 33.4457718,79.1048299 C33.9260738,78.912233 36.1426174,76.6579729 34.0682886,76.5835605 C33.9718792,76.5791833 33.9448322,76.4347355 34.0447315,76.4084723 C34.177349,76.3778319 34.309094,76.3559459 34.4386577,76.3428142 C35.0938926,76.5966921 35.6854362,76.9950176 36.2019463,77.6603526 C36.5867114,78.1593539 36.7738591,78.6496007 36.7747315,79.0960755 C36.7760403,79.879595 36.2154698,80.5274212 35.1532215,80.8382027 C35.1492953,80.8382027 35.1453691,80.8425799 35.141443,80.8425799 C34.8888591,80.9126152 34.6039933,80.9476328 34.2994966,80.9476328 C34.2990604,80.9476328 34.2986242,80.9476328 34.2981879,80.9476328" id="Fill-246" fill="#FFEDD0"></path>
                </g>
            </g>
        </g>
    </g>
</svg>